<svg xmlns="http://www.w3.org/2000/svg" viewBox="0 0 750 500"><g id="freepik--background-complete--inject-144"><circle cx="172.57" cy="69.8" r="29.85" transform="translate(29.31 188.67) rotate(-61.71)" style="fill:#ebebeb;opacity:0.19"></circle><circle cx="172.57" cy="74.71" r="22.13" transform="translate(-12.48 41.24) rotate(-13.16)" style="fill:#ebebeb;opacity:0.19"></circle><polygon points="188.65 133.86 156.51 133.86 161.62 121.3 183.52 121.3 188.65 133.86" style="fill:#ebebeb"></polygon><polygon points="202.39 74.3 183.52 121.3 161.62 121.3 142.75 74.3 202.39 74.3" style="fill:#ebebeb"></polygon><polygon points="185.8 113.22 183.53 121.3 161.62 121.3 160.3 116.61 185.8 113.22" style="fill:#dbdbdb"></polygon><circle cx="375" cy="69.8" r="29.85" transform="translate(30.71 234.01) rotate(-36.04)" style="fill:#ebebeb;opacity:0.19"></circle><circle cx="375" cy="74.71" r="22.13" transform="translate(160.67 391.37) rotate(-67.18)" style="fill:#ebebeb;opacity:0.19"></circle><polygon points="391.08 133.86 358.93 133.86 364.05 121.3 385.95 121.3 391.08 133.86" style="fill:#ebebeb"></polygon><polygon points="404.82 74.3 385.95 121.3 364.05 121.3 345.18 74.3 404.82 74.3" style="fill:#ebebeb"></polygon><polygon points="388.23 113.22 385.96 121.3 364.05 121.3 362.73 116.61 388.23 113.22" style="fill:#dbdbdb"></polygon><circle cx="577.43" cy="69.8" r="29.85" transform="translate(129.08 440.32) rotate(-46.46)" style="fill:#ebebeb;opacity:0.19"></circle><circle cx="577.43" cy="74.71" r="22.13" transform="translate(166.91 487.61) rotate(-52.54)" style="fill:#ebebeb;opacity:0.19"></circle><polygon points="593.5 133.86 561.36 133.86 566.48 121.3 588.38 121.3 593.5 133.86" style="fill:#ebebeb"></polygon><polygon points="607.25 74.3 588.38 121.3 566.48 121.3 547.61 74.3 607.25 74.3" style="fill:#ebebeb"></polygon><polygon points="590.66 113.22 588.38 121.3 566.47 121.3 565.15 116.61 590.66 113.22" style="fill:#dbdbdb"></polygon><path d="M29.85,0V290.12a.52.52,0,0,1-1,0V0Z" style="fill:#ebebeb"></path><path d="M24.42,287.6a.48.48,0,0,1-.2,0,.52.52,0,0,1-.27-.69l4.9-11.4a.53.53,0,0,1,.48-.32h0a.54.54,0,0,1,.48.32l5,11.4a.52.52,0,0,1-.26.69.53.53,0,0,1-.69-.27L29.33,277l-4.43,10.3A.51.51,0,0,1,24.42,287.6Z" style="fill:#ebebeb"></path><path d="M24.42,271.72a.48.48,0,0,1-.2,0A.52.52,0,0,1,24,271l4.9-11.4a.53.53,0,0,1,.48-.32h0a.54.54,0,0,1,.48.32l5,11.4a.52.52,0,0,1-.26.69.53.53,0,0,1-.69-.27L29.33,261.1,24.9,271.4A.51.51,0,0,1,24.42,271.72Z" style="fill:#ebebeb"></path><path d="M24.42,255.84a.48.48,0,0,1-.2,0,.52.52,0,0,1-.27-.69l4.9-11.4a.53.53,0,0,1,.48-.32h0a.54.54,0,0,1,.48.32l5,11.4a.52.52,0,0,1-.26.69.53.53,0,0,1-.69-.27l-4.49-10.31L24.9,255.53A.52.52,0,0,1,24.42,255.84Z" style="fill:#ebebeb"></path><path d="M24.42,240a.48.48,0,0,1-.2,0,.52.52,0,0,1-.27-.69l4.9-11.4a.54.54,0,0,1,.48-.32h0a.54.54,0,0,1,.48.32l5,11.4a.52.52,0,0,1-.26.69.53.53,0,0,1-.69-.27l-4.49-10.31L24.9,239.65A.52.52,0,0,1,24.42,240Z" style="fill:#ebebeb"></path><path d="M24.42,224.08a.48.48,0,0,1-.2,0,.52.52,0,0,1-.27-.69l4.9-11.4a.52.52,0,0,1,.48-.31h0a.53.53,0,0,1,.48.31l5,11.4a.52.52,0,0,1-.26.69.53.53,0,0,1-.69-.27l-4.49-10.3-4.43,10.3A.52.52,0,0,1,24.42,224.08Z" style="fill:#ebebeb"></path><path d="M24.42,208.2a.48.48,0,0,1-.2,0,.51.51,0,0,1-.27-.68l4.9-11.41a.52.52,0,0,1,.48-.31h0a.53.53,0,0,1,.48.31l5,11.4a.52.52,0,0,1-.26.69.53.53,0,0,1-.69-.27l-4.49-10.3-4.43,10.3A.52.52,0,0,1,24.42,208.2Z" style="fill:#ebebeb"></path><path d="M24.42,192.32a.48.48,0,0,1-.2,0,.51.51,0,0,1-.27-.68l4.9-11.41a.52.52,0,0,1,.48-.31h0a.53.53,0,0,1,.48.31l5,11.4a.52.52,0,0,1-.26.69.53.53,0,0,1-.69-.27l-4.49-10.3L24.9,192A.52.52,0,0,1,24.42,192.32Z" style="fill:#ebebeb"></path><path d="M24.42,176.44a.48.48,0,0,1-.2,0,.51.51,0,0,1-.27-.68l4.9-11.41a.52.52,0,0,1,.48-.31h0a.53.53,0,0,1,.48.31l5,11.4a.52.52,0,0,1-.26.69.53.53,0,0,1-.69-.27l-4.49-10.3-4.43,10.3A.52.52,0,0,1,24.42,176.44Z" style="fill:#ebebeb"></path><path d="M24.42,160.56a.48.48,0,0,1-.2,0,.51.51,0,0,1-.27-.68l4.9-11.41a.52.52,0,0,1,.48-.31h0a.53.53,0,0,1,.48.31l5,11.4a.52.52,0,0,1-.26.69.53.53,0,0,1-.69-.27L29.33,150l-4.43,10.3A.52.52,0,0,1,24.42,160.56Z" style="fill:#ebebeb"></path><path d="M50.6,0V215.74a.52.52,0,0,1-.53.51.5.5,0,0,1-.51-.51V0Z" style="fill:#ebebeb"></path><path d="M45.17,213.21a.51.51,0,0,1-.48-.72l4.9-11.41a.53.53,0,0,1,.48-.31h0a.52.52,0,0,1,.48.31l5,11.41a.52.52,0,0,1-.27.68.54.54,0,0,1-.69-.27l-4.48-10.3-4.43,10.3A.52.52,0,0,1,45.17,213.21Z" style="fill:#ebebeb"></path><path d="M45.17,197.33a.51.51,0,0,1-.48-.72l4.9-11.41a.53.53,0,0,1,.48-.31h0a.52.52,0,0,1,.48.31l5,11.41a.52.52,0,0,1-.27.68.53.53,0,0,1-.69-.27l-4.48-10.3L45.65,197A.52.52,0,0,1,45.17,197.33Z" style="fill:#ebebeb"></path><path d="M45.17,181.45a.51.51,0,0,1-.48-.72l4.9-11.41a.53.53,0,0,1,.48-.31h0a.52.52,0,0,1,.48.31l5,11.41a.52.52,0,0,1-.27.68.53.53,0,0,1-.69-.27l-4.48-10.3-4.43,10.3A.52.52,0,0,1,45.17,181.45Z" style="fill:#ebebeb"></path><path d="M45.17,165.57a.51.51,0,0,1-.48-.72l4.9-11.41a.53.53,0,0,1,.48-.31h0a.52.52,0,0,1,.48.31l5,11.41a.52.52,0,0,1-1,.41L50.08,155l-4.43,10.3A.52.52,0,0,1,45.17,165.57Z" style="fill:#ebebeb"></path><path d="M45.17,149.7a.54.54,0,0,1-.21,0,.52.52,0,0,1-.27-.68l4.9-11.41a.53.53,0,0,1,.48-.31h0a.52.52,0,0,1,.48.31l5,11.41a.52.52,0,0,1-1,.41l-4.48-10.3-4.43,10.3A.53.53,0,0,1,45.17,149.7Z" style="fill:#ebebeb"></path><path d="M45.17,133.82a.54.54,0,0,1-.21,0,.52.52,0,0,1-.27-.68l4.9-11.41a.53.53,0,0,1,.48-.31h0a.52.52,0,0,1,.48.31l5,11.41a.52.52,0,0,1-1,.41l-4.48-10.3-4.43,10.3A.53.53,0,0,1,45.17,133.82Z" style="fill:#ebebeb"></path><path d="M45.17,117.94a.54.54,0,0,1-.21,0,.52.52,0,0,1-.27-.68l4.9-11.4a.52.52,0,0,1,.48-.32h0a.52.52,0,0,1,.48.31l5,11.41a.52.52,0,0,1-1,.41l-4.48-10.3-4.43,10.3A.53.53,0,0,1,45.17,117.94Z" style="fill:#ebebeb"></path><path d="M45.17,102.06a.54.54,0,0,1-.21,0,.52.52,0,0,1-.27-.68l4.9-11.4a.52.52,0,0,1,.48-.32h0a.52.52,0,0,1,.48.31l5,11.41a.52.52,0,0,1-1,.41l-4.48-10.3-4.43,10.3A.53.53,0,0,1,45.17,102.06Z" style="fill:#ebebeb"></path><path d="M45.17,86.18a.54.54,0,0,1-.21-.05.52.52,0,0,1-.27-.68l4.9-11.4a.54.54,0,0,1,.48-.32h0a.52.52,0,0,1,.48.31l5,11.41a.52.52,0,0,1-1,.41l-4.48-10.3-4.43,10.3A.53.53,0,0,1,45.17,86.18Z" style="fill:#ebebeb"></path><path d="M71.34,0V321.11a.53.53,0,0,1-.53.52.51.51,0,0,1-.51-.52V0Z" style="fill:#ebebeb"></path><path d="M65.91,318.58a.51.51,0,0,1-.48-.72l4.91-11.41a.55.55,0,0,1,.48-.31.51.51,0,0,1,.47.31l5,11.41a.51.51,0,0,1-.27.68.51.51,0,0,1-.68-.27L70.82,308l-4.43,10.3A.52.52,0,0,1,65.91,318.58Z" style="fill:#ebebeb"></path><path d="M65.91,302.7a.51.51,0,0,1-.48-.72l4.91-11.41a.51.51,0,0,1,.47-.31h0a.51.51,0,0,1,.47.31l5,11.41a.52.52,0,1,1-1,.41l-4.49-10.3-4.43,10.3A.52.52,0,0,1,65.91,302.7Z" style="fill:#ebebeb"></path><path d="M65.91,286.83a.54.54,0,0,1-.21-.05.52.52,0,0,1-.27-.68l4.91-11.41a.5.5,0,0,1,.48-.31.51.51,0,0,1,.47.31l5,11.41a.52.52,0,0,1-1,.41l-4.49-10.3-4.43,10.3A.53.53,0,0,1,65.91,286.83Z" style="fill:#ebebeb"></path><path d="M65.91,271a.54.54,0,0,1-.21-.05.52.52,0,0,1-.27-.68l4.91-11.41a.51.51,0,0,1,.47-.31h0a.51.51,0,0,1,.47.31l5,11.41a.52.52,0,0,1-1,.41l-4.49-10.3-4.43,10.3A.53.53,0,0,1,65.91,271Z" style="fill:#ebebeb"></path><path d="M65.91,255.07a.54.54,0,0,1-.21,0,.52.52,0,0,1-.27-.68l4.91-11.41a.51.51,0,0,1,.47-.31h0a.51.51,0,0,1,.47.31l5,11.41a.52.52,0,0,1-1,.41l-4.49-10.3-4.43,10.3A.53.53,0,0,1,65.91,255.07Z" style="fill:#ebebeb"></path><path d="M65.91,239.19a.54.54,0,0,1-.21-.05.52.52,0,0,1-.27-.68l4.91-11.4a.51.51,0,0,1,.47-.32h0a.51.51,0,0,1,.47.31l5,11.41a.52.52,0,1,1-1,.41l-4.49-10.3-4.43,10.3A.53.53,0,0,1,65.91,239.19Z" style="fill:#ebebeb"></path><path d="M65.91,223.31a.54.54,0,0,1-.21-.05.52.52,0,0,1-.27-.68l4.91-11.4a.52.52,0,0,1,.47-.32h0a.51.51,0,0,1,.47.31l5,11.41a.52.52,0,1,1-1,.41l-4.49-10.3L66.39,223A.53.53,0,0,1,65.91,223.31Z" style="fill:#ebebeb"></path><path d="M65.91,207.43a.54.54,0,0,1-.21-.05.52.52,0,0,1-.27-.68l4.91-11.4a.54.54,0,0,1,.48-.32.51.51,0,0,1,.47.31l5,11.41a.52.52,0,1,1-1,.41l-4.49-10.3-4.43,10.3A.53.53,0,0,1,65.91,207.43Z" style="fill:#ebebeb"></path><path d="M65.91,191.55a.78.78,0,0,1-.21,0,.53.53,0,0,1-.27-.69l4.91-11.4a.52.52,0,0,1,.47-.32h0a.51.51,0,0,1,.47.31l5,11.41a.52.52,0,0,1-1,.42l-4.49-10.31-4.43,10.3A.53.53,0,0,1,65.91,191.55Z" style="fill:#ebebeb"></path><path d="M92.08,0V254.61a.52.52,0,1,1-1,0V0Z" style="fill:#ebebeb"></path><path d="M86.65,252.09a.79.79,0,0,1-.2,0,.52.52,0,0,1-.27-.69l4.9-11.4a.53.53,0,0,1,.48-.32h0A.53.53,0,0,1,92,240l5,11.41a.51.51,0,0,1-.26.68.52.52,0,0,1-.69-.26l-4.49-10.31-4.43,10.3A.51.51,0,0,1,86.65,252.09Z" style="fill:#ebebeb"></path><path d="M86.65,236.21a.79.79,0,0,1-.2,0,.52.52,0,0,1-.27-.69l4.9-11.4a.53.53,0,0,1,.48-.32h0a.54.54,0,0,1,.48.32l5,11.4a.52.52,0,0,1-.26.69.53.53,0,0,1-.69-.27l-4.49-10.31-4.43,10.3A.51.51,0,0,1,86.65,236.21Z" style="fill:#ebebeb"></path><path d="M86.65,220.33a.51.51,0,0,1-.2,0,.52.52,0,0,1-.27-.69l4.9-11.4a.53.53,0,0,1,.48-.32h0a.54.54,0,0,1,.48.32l5,11.4a.52.52,0,0,1-.26.69.53.53,0,0,1-.69-.27l-4.49-10.31L87.13,220A.51.51,0,0,1,86.65,220.33Z" style="fill:#ebebeb"></path><path d="M86.65,204.45a.51.51,0,0,1-.2,0,.52.52,0,0,1-.27-.69l4.9-11.4a.53.53,0,0,1,.48-.32h0a.54.54,0,0,1,.48.32l5,11.4a.52.52,0,0,1-.26.69.53.53,0,0,1-.69-.27l-4.49-10.31-4.43,10.3A.51.51,0,0,1,86.65,204.45Z" style="fill:#ebebeb"></path><path d="M86.65,188.57a.51.51,0,0,1-.2,0,.52.52,0,0,1-.27-.69l4.9-11.4a.53.53,0,0,1,.48-.32h0a.54.54,0,0,1,.48.32l5,11.4a.52.52,0,0,1-.26.69.53.53,0,0,1-.69-.27L91.56,178l-4.43,10.31A.52.52,0,0,1,86.65,188.57Z" style="fill:#ebebeb"></path><path d="M86.65,172.69a.51.51,0,0,1-.2,0,.52.52,0,0,1-.27-.69l4.9-11.4a.54.54,0,0,1,.48-.32h0a.54.54,0,0,1,.48.32L97,172a.52.52,0,0,1-.26.69.53.53,0,0,1-.69-.27l-4.49-10.31-4.43,10.31A.52.52,0,0,1,86.65,172.69Z" style="fill:#ebebeb"></path><path d="M86.65,156.81a.51.51,0,0,1-.47-.72l4.9-11.41a.52.52,0,0,1,.48-.31h0a.53.53,0,0,1,.48.31l5,11.4a.52.52,0,0,1-.26.69.53.53,0,0,1-.69-.27l-4.49-10.31L87.13,156.5A.52.52,0,0,1,86.65,156.81Z" style="fill:#ebebeb"></path><path d="M86.65,140.93a.51.51,0,0,1-.47-.72l4.9-11.41a.52.52,0,0,1,.48-.31h0a.53.53,0,0,1,.48.31l5,11.4a.52.52,0,0,1-.26.69.53.53,0,0,1-.69-.27l-4.49-10.3-4.43,10.3A.52.52,0,0,1,86.65,140.93Z" style="fill:#ebebeb"></path><path d="M86.65,125.05a.51.51,0,0,1-.47-.72l4.9-11.41a.52.52,0,0,1,.48-.31h0a.53.53,0,0,1,.48.31l5,11.4a.52.52,0,0,1-.26.69.53.53,0,0,1-.69-.27l-4.49-10.3-4.43,10.3A.52.52,0,0,1,86.65,125.05Z" style="fill:#ebebeb"></path><path d="M112.82,0V172.6a.51.51,0,0,1-.51.52.52.52,0,0,1-.53-.52V0Z" style="fill:#ebebeb"></path><path d="M107.4,170.08a.52.52,0,0,1-.21,0,.53.53,0,0,1-.27-.69l4.9-11.4a.55.55,0,0,1,.48-.32h0a.53.53,0,0,1,.48.32l5,11.4a.52.52,0,0,1-1,.42l-4.48-10.31-4.44,10.31A.51.51,0,0,1,107.4,170.08Z" style="fill:#ebebeb"></path><path d="M107.4,154.2a.51.51,0,0,1-.48-.72l4.9-11.41a.53.53,0,0,1,.48-.31h0a.52.52,0,0,1,.48.31l5,11.4a.52.52,0,1,1-1,.42l-4.48-10.3-4.44,10.3A.51.51,0,0,1,107.4,154.2Z" style="fill:#ebebeb"></path><path d="M107.4,138.32a.51.51,0,0,1-.48-.72l4.9-11.41a.53.53,0,0,1,.48-.31h0a.52.52,0,0,1,.48.31l5,11.4a.52.52,0,1,1-1,.42l-4.48-10.3L107.87,138A.51.51,0,0,1,107.4,138.32Z" style="fill:#ebebeb"></path><path d="M107.4,122.44a.51.51,0,0,1-.48-.72l4.9-11.41a.53.53,0,0,1,.48-.31h0a.52.52,0,0,1,.48.31l5,11.4a.52.52,0,1,1-1,.42l-4.48-10.3-4.44,10.3A.51.51,0,0,1,107.4,122.44Z" style="fill:#ebebeb"></path><path d="M107.4,106.56a.51.51,0,0,1-.48-.72l4.9-11.41a.53.53,0,0,1,.48-.31h0a.52.52,0,0,1,.48.31l5,11.4a.52.52,0,0,1-1,.42L112.31,96l-4.44,10.3A.51.51,0,0,1,107.4,106.56Z" style="fill:#ebebeb"></path><path d="M107.4,90.68a.51.51,0,0,1-.48-.72l4.9-11.41a.53.53,0,0,1,.48-.31h0a.52.52,0,0,1,.48.31l5,11.4a.52.52,0,0,1-1,.42l-4.48-10.3-4.44,10.3A.51.51,0,0,1,107.4,90.68Z" style="fill:#ebebeb"></path><path d="M107.4,74.8a.51.51,0,0,1-.48-.72l4.9-11.41a.53.53,0,0,1,.48-.31h0a.52.52,0,0,1,.48.31l5,11.41a.52.52,0,0,1-.27.68.53.53,0,0,1-.69-.27l-4.48-10.3-4.44,10.3A.5.5,0,0,1,107.4,74.8Z" style="fill:#ebebeb"></path><path d="M107.4,58.92a.51.51,0,0,1-.48-.72l4.9-11.41a.53.53,0,0,1,.48-.31h0a.52.52,0,0,1,.48.31l5,11.41a.52.52,0,0,1-.27.68.53.53,0,0,1-.69-.27l-4.48-10.3-4.44,10.3A.5.5,0,0,1,107.4,58.92Z" style="fill:#ebebeb"></path><path d="M107.4,43a.51.51,0,0,1-.48-.72l4.9-11.41a.53.53,0,0,1,.48-.31h0a.52.52,0,0,1,.48.31l5,11.41a.52.52,0,0,1-1,.41l-4.48-10.3-4.44,10.3A.5.5,0,0,1,107.4,43Z" style="fill:#ebebeb"></path><path d="M237.13,0V221.11a.53.53,0,0,1-.53.52.51.51,0,0,1-.51-.52V0Z" style="fill:#ebebeb"></path><path d="M231.7,218.58a.51.51,0,0,1-.48-.72l4.91-11.41a.55.55,0,0,1,.48-.31.51.51,0,0,1,.47.31l5,11.41a.51.51,0,0,1-.27.68.51.51,0,0,1-.68-.27L236.61,208l-4.43,10.3A.52.52,0,0,1,231.7,218.58Z" style="fill:#ebebeb"></path><path d="M231.7,202.7a.51.51,0,0,1-.48-.72l4.91-11.41a.51.51,0,0,1,.47-.31h0a.51.51,0,0,1,.47.31l5,11.41a.52.52,0,0,1-1,.41l-4.49-10.3-4.43,10.3A.52.52,0,0,1,231.7,202.7Z" style="fill:#ebebeb"></path><path d="M231.7,186.83a.54.54,0,0,1-.21-.05.52.52,0,0,1-.27-.68l4.91-11.41a.5.5,0,0,1,.48-.31.51.51,0,0,1,.47.31l5,11.41a.52.52,0,0,1-1,.41l-4.49-10.3-4.43,10.3A.53.53,0,0,1,231.7,186.83Z" style="fill:#ebebeb"></path><path d="M231.7,171a.54.54,0,0,1-.21,0,.52.52,0,0,1-.27-.68l4.91-11.41a.51.51,0,0,1,.47-.31h0a.51.51,0,0,1,.47.31l5,11.41a.52.52,0,0,1-1,.41l-4.49-10.3-4.43,10.3A.53.53,0,0,1,231.7,171Z" style="fill:#ebebeb"></path><path d="M231.7,155.07a.54.54,0,0,1-.21,0,.52.52,0,0,1-.27-.68l4.91-11.41a.51.51,0,0,1,.47-.31h0a.51.51,0,0,1,.47.31l5,11.41a.52.52,0,0,1-1,.41l-4.49-10.3-4.43,10.3A.53.53,0,0,1,231.7,155.07Z" style="fill:#ebebeb"></path><path d="M231.7,139.19a.54.54,0,0,1-.21-.05.52.52,0,0,1-.27-.68l4.91-11.4a.51.51,0,0,1,.47-.32h0a.51.51,0,0,1,.47.31l5,11.41a.52.52,0,1,1-1,.41l-4.49-10.3-4.43,10.3A.53.53,0,0,1,231.7,139.19Z" style="fill:#ebebeb"></path><path d="M231.7,123.31a.54.54,0,0,1-.21,0,.52.52,0,0,1-.27-.68l4.91-11.4a.52.52,0,0,1,.47-.32h0a.51.51,0,0,1,.47.31l5,11.41a.52.52,0,0,1-1,.41l-4.49-10.3L232.18,123A.53.53,0,0,1,231.7,123.31Z" style="fill:#ebebeb"></path><path d="M231.7,107.43a.54.54,0,0,1-.21-.05.52.52,0,0,1-.27-.68l4.91-11.4a.54.54,0,0,1,.48-.32.51.51,0,0,1,.47.31l5,11.41a.52.52,0,0,1-1,.41l-4.49-10.3-4.43,10.3A.53.53,0,0,1,231.7,107.43Z" style="fill:#ebebeb"></path><path d="M231.7,91.55a.78.78,0,0,1-.21,0,.53.53,0,0,1-.27-.69l4.91-11.4a.52.52,0,0,1,.47-.32h0a.51.51,0,0,1,.47.31l5,11.41a.52.52,0,0,1-1,.42l-4.49-10.31-4.43,10.3A.53.53,0,0,1,231.7,91.55Z" style="fill:#ebebeb"></path><path d="M257.87,0V254.61a.52.52,0,0,1-1,0V0Z" style="fill:#ebebeb"></path><path d="M252.44,252.09a.71.71,0,0,1-.2,0,.52.52,0,0,1-.27-.69l4.9-11.4a.53.53,0,0,1,.48-.32h0a.53.53,0,0,1,.48.31l5,11.41a.51.51,0,0,1-.26.68.52.52,0,0,1-.69-.26l-4.49-10.31-4.43,10.3A.51.51,0,0,1,252.44,252.09Z" style="fill:#ebebeb"></path><path d="M252.44,236.21a.71.71,0,0,1-.2,0,.52.52,0,0,1-.27-.69l4.9-11.4a.53.53,0,0,1,.48-.32h0a.54.54,0,0,1,.48.32l5,11.4a.52.52,0,0,1-.26.69.53.53,0,0,1-.69-.27l-4.49-10.31-4.43,10.3A.51.51,0,0,1,252.44,236.21Z" style="fill:#ebebeb"></path><path d="M252.44,220.33a.48.48,0,0,1-.2,0,.52.52,0,0,1-.27-.69l4.9-11.4a.53.53,0,0,1,.48-.32h0a.54.54,0,0,1,.48.32l5,11.4a.52.52,0,0,1-.26.69.53.53,0,0,1-.69-.27l-4.49-10.31L252.92,220A.51.51,0,0,1,252.44,220.33Z" style="fill:#ebebeb"></path><path d="M252.44,204.45a.48.48,0,0,1-.2,0,.52.52,0,0,1-.27-.69l4.9-11.4a.53.53,0,0,1,.48-.32h0a.54.54,0,0,1,.48.32l5,11.4a.52.52,0,0,1-.26.69.53.53,0,0,1-.69-.27l-4.49-10.31-4.43,10.3A.51.51,0,0,1,252.44,204.45Z" style="fill:#ebebeb"></path><path d="M252.44,188.57a.48.48,0,0,1-.2,0,.52.52,0,0,1-.27-.69l4.9-11.4a.53.53,0,0,1,.48-.32h0a.54.54,0,0,1,.48.32l5,11.4a.52.52,0,0,1-.26.69.53.53,0,0,1-.69-.27L257.35,178l-4.43,10.31A.52.52,0,0,1,252.44,188.57Z" style="fill:#ebebeb"></path><path d="M252.44,172.69a.48.48,0,0,1-.2,0A.52.52,0,0,1,252,172l4.9-11.4a.54.54,0,0,1,.48-.32h0a.54.54,0,0,1,.48.32l5,11.4a.52.52,0,0,1-.26.69.53.53,0,0,1-.69-.27l-4.49-10.31-4.43,10.31A.52.52,0,0,1,252.44,172.69Z" style="fill:#ebebeb"></path><path d="M252.44,156.81a.48.48,0,0,1-.2,0,.51.51,0,0,1-.27-.68l4.9-11.41a.52.52,0,0,1,.48-.31h0a.53.53,0,0,1,.48.31l5,11.4a.52.52,0,0,1-.26.69.53.53,0,0,1-.69-.27l-4.49-10.31-4.43,10.31A.52.52,0,0,1,252.44,156.81Z" style="fill:#ebebeb"></path><path d="M252.44,140.93a.48.48,0,0,1-.2,0,.51.51,0,0,1-.27-.68l4.9-11.41a.52.52,0,0,1,.48-.31h0a.53.53,0,0,1,.48.31l5,11.4a.52.52,0,0,1-.26.69.53.53,0,0,1-.69-.27l-4.49-10.3-4.43,10.3A.52.52,0,0,1,252.44,140.93Z" style="fill:#ebebeb"></path><path d="M252.44,125.05a.48.48,0,0,1-.2,0,.51.51,0,0,1-.27-.68l4.9-11.41a.52.52,0,0,1,.48-.31h0a.53.53,0,0,1,.48.31l5,11.4a.52.52,0,0,1-.26.69.53.53,0,0,1-.69-.27l-4.49-10.3-4.43,10.3A.52.52,0,0,1,252.44,125.05Z" style="fill:#ebebeb"></path><path d="M278.61,0V172.6a.51.51,0,0,1-.51.52.52.52,0,0,1-.53-.52V0Z" style="fill:#ebebeb"></path><path d="M273.19,170.08a.52.52,0,0,1-.21,0,.53.53,0,0,1-.27-.69l4.9-11.4a.55.55,0,0,1,.48-.32h0a.53.53,0,0,1,.48.32l5,11.4a.52.52,0,0,1-1,.42l-4.48-10.31-4.44,10.31A.51.51,0,0,1,273.19,170.08Z" style="fill:#ebebeb"></path><path d="M273.19,154.2a.51.51,0,0,1-.48-.72l4.9-11.41a.53.53,0,0,1,.48-.31h0a.52.52,0,0,1,.48.31l5,11.4a.52.52,0,1,1-1,.42l-4.48-10.3-4.44,10.3A.51.51,0,0,1,273.19,154.2Z" style="fill:#ebebeb"></path><path d="M273.19,138.32a.51.51,0,0,1-.48-.72l4.9-11.41a.53.53,0,0,1,.48-.31h0a.52.52,0,0,1,.48.31l5,11.4a.52.52,0,1,1-1,.42l-4.48-10.3L273.66,138A.51.51,0,0,1,273.19,138.32Z" style="fill:#ebebeb"></path><path d="M273.19,122.44a.51.51,0,0,1-.48-.72l4.9-11.41a.53.53,0,0,1,.48-.31h0a.52.52,0,0,1,.48.31l5,11.4a.52.52,0,1,1-1,.42l-4.48-10.3-4.44,10.3A.51.51,0,0,1,273.19,122.44Z" style="fill:#ebebeb"></path><path d="M273.19,106.56a.51.51,0,0,1-.48-.72l4.9-11.41a.53.53,0,0,1,.48-.31h0a.52.52,0,0,1,.48.31l5,11.4a.52.52,0,1,1-1,.42L278.1,96l-4.44,10.3A.51.51,0,0,1,273.19,106.56Z" style="fill:#ebebeb"></path><path d="M273.19,90.68a.51.51,0,0,1-.48-.72l4.9-11.41a.53.53,0,0,1,.48-.31h0a.52.52,0,0,1,.48.31l5,11.4a.52.52,0,1,1-1,.42l-4.48-10.3-4.44,10.3A.51.51,0,0,1,273.19,90.68Z" style="fill:#ebebeb"></path><path d="M273.19,74.8a.51.51,0,0,1-.48-.72l4.9-11.41a.53.53,0,0,1,.48-.31h0a.52.52,0,0,1,.48.31l5,11.41a.52.52,0,0,1-.27.68.53.53,0,0,1-.69-.27l-4.48-10.3-4.44,10.3A.5.5,0,0,1,273.19,74.8Z" style="fill:#ebebeb"></path><path d="M273.19,58.92a.51.51,0,0,1-.48-.72l4.9-11.41a.53.53,0,0,1,.48-.31h0a.52.52,0,0,1,.48.31l5,11.41a.52.52,0,0,1-.27.68.53.53,0,0,1-.69-.27l-4.48-10.3-4.44,10.3A.5.5,0,0,1,273.19,58.92Z" style="fill:#ebebeb"></path><path d="M273.19,43a.51.51,0,0,1-.48-.72l4.9-11.41a.53.53,0,0,1,.48-.31h0a.52.52,0,0,1,.48.31l5,11.41a.52.52,0,0,1-1,.41l-4.48-10.3-4.44,10.3A.5.5,0,0,1,273.19,43Z" style="fill:#ebebeb"></path><path d="M512.87,0V221.11a.53.53,0,0,0,.53.52.51.51,0,0,0,.51-.52V0Z" style="fill:#ebebeb"></path><path d="M518.3,218.58a.51.51,0,0,0,.48-.72l-4.91-11.41a.55.55,0,0,0-.48-.31.51.51,0,0,0-.47.31l-5,11.41a.51.51,0,0,0,.27.68.51.51,0,0,0,.68-.27l4.49-10.3,4.43,10.3A.52.52,0,0,0,518.3,218.58Z" style="fill:#ebebeb"></path><path d="M518.3,202.7a.51.51,0,0,0,.48-.72l-4.91-11.41a.51.51,0,0,0-.47-.31h0a.51.51,0,0,0-.47.31L508,202a.52.52,0,1,0,.95.41l4.49-10.3,4.43,10.3A.52.52,0,0,0,518.3,202.7Z" style="fill:#ebebeb"></path><path d="M518.3,186.83a.54.54,0,0,0,.21-.05.52.52,0,0,0,.27-.68l-4.91-11.41a.5.5,0,0,0-.48-.31.51.51,0,0,0-.47.31l-5,11.41a.52.52,0,1,0,.95.41l4.49-10.3,4.43,10.3A.53.53,0,0,0,518.3,186.83Z" style="fill:#ebebeb"></path><path d="M518.3,171a.54.54,0,0,0,.21,0,.52.52,0,0,0,.27-.68l-4.91-11.41a.51.51,0,0,0-.47-.31h0a.51.51,0,0,0-.47.31l-5,11.41a.52.52,0,1,0,.95.41l4.49-10.3,4.43,10.3A.53.53,0,0,0,518.3,171Z" style="fill:#ebebeb"></path><path d="M518.3,155.07a.54.54,0,0,0,.21,0,.52.52,0,0,0,.27-.68l-4.91-11.41a.51.51,0,0,0-.47-.31h0a.51.51,0,0,0-.47.31l-5,11.41a.52.52,0,1,0,.95.41l4.49-10.3,4.43,10.3A.53.53,0,0,0,518.3,155.07Z" style="fill:#ebebeb"></path><path d="M518.3,139.19a.54.54,0,0,0,.21-.05.52.52,0,0,0,.27-.68l-4.91-11.4a.51.51,0,0,0-.47-.32h0a.51.51,0,0,0-.47.31l-5,11.41a.52.52,0,0,0,.95.41l4.49-10.3,4.43,10.3A.53.53,0,0,0,518.3,139.19Z" style="fill:#ebebeb"></path><path d="M518.3,123.31a.54.54,0,0,0,.21,0,.52.52,0,0,0,.27-.68l-4.91-11.4a.52.52,0,0,0-.47-.32h0a.51.51,0,0,0-.47.31l-5,11.41a.52.52,0,1,0,.95.41l4.49-10.3,4.43,10.3A.53.53,0,0,0,518.3,123.31Z" style="fill:#ebebeb"></path><path d="M518.3,107.43a.54.54,0,0,0,.21-.05.52.52,0,0,0,.27-.68l-4.91-11.4a.54.54,0,0,0-.48-.32.51.51,0,0,0-.47.31l-5,11.41a.52.52,0,1,0,.95.41l4.49-10.3,4.43,10.3A.53.53,0,0,0,518.3,107.43Z" style="fill:#ebebeb"></path><path d="M518.3,91.55a.78.78,0,0,0,.21,0,.53.53,0,0,0,.27-.69l-4.91-11.4a.52.52,0,0,0-.47-.32h0a.51.51,0,0,0-.47.31l-5,11.41a.52.52,0,0,0,.95.42l4.49-10.31,4.43,10.3A.53.53,0,0,0,518.3,91.55Z" style="fill:#ebebeb"></path><path d="M492.13,0V254.61a.52.52,0,1,0,1,0V0Z" style="fill:#ebebeb"></path><path d="M497.56,252.09a.71.71,0,0,0,.2,0,.52.52,0,0,0,.27-.69l-4.9-11.4a.53.53,0,0,0-.48-.32h0a.53.53,0,0,0-.48.31l-5,11.41a.51.51,0,0,0,.26.68.52.52,0,0,0,.69-.26l4.49-10.31,4.43,10.3A.51.51,0,0,0,497.56,252.09Z" style="fill:#ebebeb"></path><path d="M497.56,236.21a.71.71,0,0,0,.2,0,.52.52,0,0,0,.27-.69l-4.9-11.4a.53.53,0,0,0-.48-.32h0a.54.54,0,0,0-.48.32l-5,11.4a.52.52,0,0,0,.26.69.53.53,0,0,0,.69-.27l4.49-10.31,4.43,10.3A.51.51,0,0,0,497.56,236.21Z" style="fill:#ebebeb"></path><path d="M497.56,220.33a.48.48,0,0,0,.2,0,.52.52,0,0,0,.27-.69l-4.9-11.4a.53.53,0,0,0-.48-.32h0a.54.54,0,0,0-.48.32l-5,11.4a.52.52,0,0,0,.26.69.53.53,0,0,0,.69-.27l4.49-10.31,4.43,10.3A.51.51,0,0,0,497.56,220.33Z" style="fill:#ebebeb"></path><path d="M497.56,204.45a.48.48,0,0,0,.2,0,.52.52,0,0,0,.27-.69l-4.9-11.4a.53.53,0,0,0-.48-.32h0a.54.54,0,0,0-.48.32l-5,11.4a.52.52,0,0,0,.26.69.53.53,0,0,0,.69-.27l4.49-10.31,4.43,10.3A.51.51,0,0,0,497.56,204.45Z" style="fill:#ebebeb"></path><path d="M497.56,188.57a.48.48,0,0,0,.2,0,.52.52,0,0,0,.27-.69l-4.9-11.4a.53.53,0,0,0-.48-.32h0a.54.54,0,0,0-.48.32l-5,11.4a.52.52,0,0,0,.26.69.53.53,0,0,0,.69-.27L492.65,178l4.43,10.31A.52.52,0,0,0,497.56,188.57Z" style="fill:#ebebeb"></path><path d="M497.56,172.69a.48.48,0,0,0,.2,0A.52.52,0,0,0,498,172l-4.9-11.4a.54.54,0,0,0-.48-.32h0a.54.54,0,0,0-.48.32l-5,11.4a.52.52,0,0,0,.26.69.53.53,0,0,0,.69-.27l4.49-10.31,4.43,10.31A.52.52,0,0,0,497.56,172.69Z" style="fill:#ebebeb"></path><path d="M497.56,156.81a.48.48,0,0,0,.2,0,.51.51,0,0,0,.27-.68l-4.9-11.41a.52.52,0,0,0-.48-.31h0a.53.53,0,0,0-.48.31l-5,11.4a.52.52,0,0,0,.26.69.53.53,0,0,0,.69-.27l4.49-10.31,4.43,10.31A.52.52,0,0,0,497.56,156.81Z" style="fill:#ebebeb"></path><path d="M497.56,140.93a.48.48,0,0,0,.2,0,.51.51,0,0,0,.27-.68l-4.9-11.41a.52.52,0,0,0-.48-.31h0a.53.53,0,0,0-.48.31l-5,11.4a.52.52,0,0,0,.26.69.53.53,0,0,0,.69-.27l4.49-10.3,4.43,10.3A.52.52,0,0,0,497.56,140.93Z" style="fill:#ebebeb"></path><path d="M497.56,125.05a.48.48,0,0,0,.2,0,.51.51,0,0,0,.27-.68l-4.9-11.41a.52.52,0,0,0-.48-.31h0a.53.53,0,0,0-.48.31l-5,11.4a.52.52,0,0,0,.26.69.53.53,0,0,0,.69-.27l4.49-10.3,4.43,10.3A.52.52,0,0,0,497.56,125.05Z" style="fill:#ebebeb"></path><path d="M471.39,0V172.6a.51.51,0,0,0,.51.52.52.52,0,0,0,.53-.52V0Z" style="fill:#ebebeb"></path><path d="M476.81,170.08a.52.52,0,0,0,.21,0,.53.53,0,0,0,.27-.69l-4.9-11.4a.55.55,0,0,0-.48-.32h0a.53.53,0,0,0-.48.32l-5,11.4a.52.52,0,1,0,1,.42l4.48-10.31,4.44,10.31A.51.51,0,0,0,476.81,170.08Z" style="fill:#ebebeb"></path><path d="M476.81,154.2a.51.51,0,0,0,.48-.72l-4.9-11.41a.53.53,0,0,0-.48-.31h0a.52.52,0,0,0-.48.31l-5,11.4a.52.52,0,1,0,1,.42l4.48-10.3,4.44,10.3A.51.51,0,0,0,476.81,154.2Z" style="fill:#ebebeb"></path><path d="M476.81,138.32a.51.51,0,0,0,.48-.72l-4.9-11.41a.53.53,0,0,0-.48-.31h0a.52.52,0,0,0-.48.31l-5,11.4a.52.52,0,1,0,1,.42l4.48-10.3,4.44,10.3A.51.51,0,0,0,476.81,138.32Z" style="fill:#ebebeb"></path><path d="M476.81,122.44a.51.51,0,0,0,.48-.72l-4.9-11.41a.53.53,0,0,0-.48-.31h0a.52.52,0,0,0-.48.31l-5,11.4a.52.52,0,1,0,1,.42l4.48-10.3,4.44,10.3A.51.51,0,0,0,476.81,122.44Z" style="fill:#ebebeb"></path><path d="M476.81,106.56a.51.51,0,0,0,.48-.72l-4.9-11.41a.53.53,0,0,0-.48-.31h0a.52.52,0,0,0-.48.31l-5,11.4a.52.52,0,1,0,1,.42L471.9,96l4.44,10.3A.51.51,0,0,0,476.81,106.56Z" style="fill:#ebebeb"></path><path d="M476.81,90.68a.51.51,0,0,0,.48-.72l-4.9-11.41a.53.53,0,0,0-.48-.31h0a.52.52,0,0,0-.48.31l-5,11.4a.52.52,0,1,0,1,.42l4.48-10.3,4.44,10.3A.51.51,0,0,0,476.81,90.68Z" style="fill:#ebebeb"></path><path d="M476.81,74.8a.51.51,0,0,0,.48-.72l-4.9-11.41a.53.53,0,0,0-.48-.31h0a.52.52,0,0,0-.48.31l-5,11.41a.52.52,0,0,0,.27.68.53.53,0,0,0,.69-.27l4.48-10.3,4.44,10.3A.5.5,0,0,0,476.81,74.8Z" style="fill:#ebebeb"></path><path d="M476.81,58.92a.51.51,0,0,0,.48-.72l-4.9-11.41a.53.53,0,0,0-.48-.31h0a.52.52,0,0,0-.48.31l-5,11.41a.52.52,0,0,0,.27.68.53.53,0,0,0,.69-.27l4.48-10.3,4.44,10.3A.5.5,0,0,0,476.81,58.92Z" style="fill:#ebebeb"></path><path d="M476.81,43a.51.51,0,0,0,.48-.72l-4.9-11.41a.53.53,0,0,0-.48-.31h0a.52.52,0,0,0-.48.31l-5,11.41a.52.52,0,0,0,1,.41l4.48-10.3,4.44,10.3A.5.5,0,0,0,476.81,43Z" style="fill:#ebebeb"></path><path d="M658,0V254.61a.51.51,0,0,0,.51.52.52.52,0,0,0,.53-.52V0Z" style="fill:#ebebeb"></path><path d="M663.41,252.09a.78.78,0,0,0,.21,0,.53.53,0,0,0,.27-.69L659,240a.54.54,0,0,0-.48-.32h0a.52.52,0,0,0-.48.31l-5,11.41a.52.52,0,0,0,1,.42l4.48-10.31,4.43,10.3A.53.53,0,0,0,663.41,252.09Z" style="fill:#ebebeb"></path><path d="M663.41,236.21a.78.78,0,0,0,.21,0,.53.53,0,0,0,.27-.69l-4.9-11.4a.54.54,0,0,0-.48-.32h0a.53.53,0,0,0-.48.32l-5,11.4a.52.52,0,0,0,1,.42l4.48-10.31,4.43,10.3A.53.53,0,0,0,663.41,236.21Z" style="fill:#ebebeb"></path><path d="M663.41,220.33a.52.52,0,0,0,.21,0,.53.53,0,0,0,.27-.69L659,208.2a.54.54,0,0,0-.48-.32h0a.53.53,0,0,0-.48.32l-5,11.4a.52.52,0,0,0,1,.42l4.48-10.31,4.43,10.3A.53.53,0,0,0,663.41,220.33Z" style="fill:#ebebeb"></path><path d="M663.41,204.45a.52.52,0,0,0,.21,0,.53.53,0,0,0,.27-.69l-4.9-11.4a.54.54,0,0,0-.48-.32h0a.53.53,0,0,0-.48.32l-5,11.4a.52.52,0,0,0,1,.42l4.48-10.31,4.43,10.3A.53.53,0,0,0,663.41,204.45Z" style="fill:#ebebeb"></path><path d="M663.41,188.57a.52.52,0,0,0,.21,0,.53.53,0,0,0,.27-.69l-4.9-11.4a.54.54,0,0,0-.48-.32h0a.53.53,0,0,0-.48.32l-5,11.4a.52.52,0,0,0,1,.42L658.5,178l4.43,10.31A.54.54,0,0,0,663.41,188.57Z" style="fill:#ebebeb"></path><path d="M663.41,172.69a.52.52,0,0,0,.21,0,.53.53,0,0,0,.27-.69l-4.9-11.4a.55.55,0,0,0-.48-.32h0a.53.53,0,0,0-.48.32l-5,11.4a.52.52,0,0,0,1,.42l4.48-10.31,4.43,10.31A.54.54,0,0,0,663.41,172.69Z" style="fill:#ebebeb"></path><path d="M663.41,156.81a.51.51,0,0,0,.48-.72L659,144.68a.53.53,0,0,0-.48-.31h0a.52.52,0,0,0-.48.31l-5,11.4a.52.52,0,0,0,1,.42l4.48-10.31,4.43,10.31A.54.54,0,0,0,663.41,156.81Z" style="fill:#ebebeb"></path><path d="M663.41,140.93a.51.51,0,0,0,.48-.72L659,128.8a.53.53,0,0,0-.48-.31h0a.52.52,0,0,0-.48.31l-5,11.4a.52.52,0,0,0,1,.42l4.48-10.3,4.43,10.3A.54.54,0,0,0,663.41,140.93Z" style="fill:#ebebeb"></path><path d="M663.41,125.05a.51.51,0,0,0,.48-.72L659,112.92a.53.53,0,0,0-.48-.31h0a.52.52,0,0,0-.48.31l-5,11.4a.52.52,0,0,0,1,.42l4.48-10.3,4.43,10.3A.54.54,0,0,0,663.41,125.05Z" style="fill:#ebebeb"></path><path d="M637.25,0V172.6a.51.51,0,0,0,.51.52.52.52,0,0,0,.52-.52V0Z" style="fill:#ebebeb"></path><path d="M642.67,170.08a.45.45,0,0,0,.2,0,.53.53,0,0,0,.28-.69L638.24,158a.54.54,0,0,0-.47-.32h0a.52.52,0,0,0-.47.32l-5,11.4a.52.52,0,0,0,.27.69.52.52,0,0,0,.68-.27l4.49-10.31,4.43,10.31A.54.54,0,0,0,642.67,170.08Z" style="fill:#ebebeb"></path><path d="M642.67,154.2a.45.45,0,0,0,.2,0,.52.52,0,0,0,.28-.68l-4.91-11.41a.51.51,0,0,0-.47-.31h0a.51.51,0,0,0-.47.31l-5,11.4a.52.52,0,0,0,.27.69.52.52,0,0,0,.68-.27l4.49-10.3,4.43,10.3A.54.54,0,0,0,642.67,154.2Z" style="fill:#ebebeb"></path><path d="M642.67,138.32a.45.45,0,0,0,.2,0,.52.52,0,0,0,.28-.68l-4.91-11.41a.51.51,0,0,0-.47-.31h0a.51.51,0,0,0-.47.31l-5,11.4a.52.52,0,0,0,.27.69.52.52,0,0,0,.68-.27l4.49-10.3,4.43,10.3A.54.54,0,0,0,642.67,138.32Z" style="fill:#ebebeb"></path><path d="M642.67,122.44a.45.45,0,0,0,.2,0,.52.52,0,0,0,.28-.68l-4.91-11.41a.51.51,0,0,0-.47-.31h0a.51.51,0,0,0-.47.31l-5,11.4a.52.52,0,0,0,.27.69.52.52,0,0,0,.68-.27l4.49-10.3,4.43,10.3A.54.54,0,0,0,642.67,122.44Z" style="fill:#ebebeb"></path><path d="M642.67,106.56a.45.45,0,0,0,.2,0,.52.52,0,0,0,.28-.68l-4.91-11.41a.51.51,0,0,0-.47-.31h0a.51.51,0,0,0-.47.31l-5,11.4a.52.52,0,0,0,.27.69.52.52,0,0,0,.68-.27L637.76,96l4.43,10.3A.54.54,0,0,0,642.67,106.56Z" style="fill:#ebebeb"></path><path d="M642.67,90.68a.45.45,0,0,0,.2,0,.52.52,0,0,0,.28-.68l-4.91-11.41a.51.51,0,0,0-.47-.31h0a.51.51,0,0,0-.47.31l-5,11.4a.52.52,0,0,0,.27.69.52.52,0,0,0,.68-.27l4.49-10.3,4.43,10.3A.54.54,0,0,0,642.67,90.68Z" style="fill:#ebebeb"></path><path d="M642.67,74.8a.45.45,0,0,0,.2,0,.52.52,0,0,0,.28-.68l-4.91-11.41a.51.51,0,0,0-.47-.31h0a.51.51,0,0,0-.47.31l-5,11.41a.51.51,0,0,0,.27.68.51.51,0,0,0,.68-.27l4.49-10.3,4.43,10.3A.52.52,0,0,0,642.67,74.8Z" style="fill:#ebebeb"></path><path d="M642.67,58.92a.45.45,0,0,0,.2,0,.52.52,0,0,0,.28-.68l-4.91-11.41a.51.51,0,0,0-.47-.31h0a.51.51,0,0,0-.47.31l-5,11.41a.51.51,0,0,0,.27.68.51.51,0,0,0,.68-.27l4.49-10.3,4.43,10.3A.52.52,0,0,0,642.67,58.92Z" style="fill:#ebebeb"></path><path d="M642.67,43a.45.45,0,0,0,.2,0,.52.52,0,0,0,.28-.68l-4.91-11.41a.51.51,0,0,0-.47-.31h0a.51.51,0,0,0-.47.31l-5,11.41a.52.52,0,0,0,.95.41l4.49-10.3,4.43,10.3A.52.52,0,0,0,642.67,43Z" style="fill:#ebebeb"></path><path d="M721.19,0V290.12a.52.52,0,1,1-1,0V0Z" style="fill:#ebebeb"></path><path d="M725.58,287.6a.51.51,0,0,1-.48-.32L720.67,277l-4.49,10.31a.53.53,0,0,1-.69.27.52.52,0,0,1-.26-.69l5-11.4a.54.54,0,0,1,.48-.32h0a.53.53,0,0,1,.48.32l4.9,11.4a.52.52,0,0,1-.27.69A.51.51,0,0,1,725.58,287.6Z" style="fill:#ebebeb"></path><path d="M725.58,271.72a.51.51,0,0,1-.48-.32l-4.43-10.3-4.49,10.31a.53.53,0,0,1-.69.27.52.52,0,0,1-.26-.69l5-11.4a.54.54,0,0,1,.48-.32h0a.53.53,0,0,1,.48.32l4.9,11.4a.52.52,0,0,1-.27.69A.51.51,0,0,1,725.58,271.72Z" style="fill:#ebebeb"></path><path d="M725.58,255.84a.52.52,0,0,1-.48-.31l-4.43-10.31-4.49,10.31a.53.53,0,0,1-.69.27.52.52,0,0,1-.26-.69l5-11.4a.54.54,0,0,1,.48-.32h0a.53.53,0,0,1,.48.32l4.9,11.4a.52.52,0,0,1-.27.69A.51.51,0,0,1,725.58,255.84Z" style="fill:#ebebeb"></path><path d="M725.58,240a.52.52,0,0,1-.48-.31l-4.43-10.31-4.49,10.31a.53.53,0,0,1-.69.27.52.52,0,0,1-.26-.69l5-11.4a.54.54,0,0,1,.48-.32h0a.54.54,0,0,1,.48.32l4.9,11.4a.52.52,0,0,1-.27.69A.51.51,0,0,1,725.58,240Z" style="fill:#ebebeb"></path><path d="M725.58,224.08a.52.52,0,0,1-.48-.31l-4.43-10.3-4.49,10.3a.53.53,0,0,1-.69.27.52.52,0,0,1-.26-.69l5-11.4a.53.53,0,0,1,.48-.31h0a.52.52,0,0,1,.48.31l4.9,11.4a.52.52,0,0,1-.27.69A.51.51,0,0,1,725.58,224.08Z" style="fill:#ebebeb"></path><path d="M725.58,208.2a.52.52,0,0,1-.48-.31l-4.43-10.3-4.49,10.3a.53.53,0,0,1-.69.27.52.52,0,0,1-.26-.69l5-11.4a.53.53,0,0,1,.48-.31h0a.52.52,0,0,1,.48.31l4.9,11.41a.51.51,0,0,1-.47.72Z" style="fill:#ebebeb"></path><path d="M725.58,192.32a.52.52,0,0,1-.48-.31l-4.43-10.3L716.18,192a.53.53,0,0,1-.69.27.52.52,0,0,1-.26-.69l5-11.4a.53.53,0,0,1,.48-.31h0a.52.52,0,0,1,.48.31l4.9,11.41a.51.51,0,0,1-.47.72Z" style="fill:#ebebeb"></path><path d="M725.58,176.44a.52.52,0,0,1-.48-.31l-4.43-10.3-4.49,10.3a.53.53,0,0,1-.69.27.52.52,0,0,1-.26-.69l5-11.4a.53.53,0,0,1,.48-.31h0a.52.52,0,0,1,.48.31l4.9,11.41a.51.51,0,0,1-.47.72Z" style="fill:#ebebeb"></path><path d="M725.58,160.56a.52.52,0,0,1-.48-.31L720.67,150l-4.49,10.3a.53.53,0,0,1-.69.27.52.52,0,0,1-.26-.69l5-11.4a.53.53,0,0,1,.48-.31h0a.52.52,0,0,1,.48.31l4.9,11.41a.51.51,0,0,1-.47.72Z" style="fill:#ebebeb"></path><path d="M700.45,0V215.74a.51.51,0,0,1-.52.51.52.52,0,0,1-.53-.51V0Z" style="fill:#ebebeb"></path><path d="M704.83,213.21a.52.52,0,0,1-.48-.31l-4.43-10.3-4.48,10.3a.53.53,0,0,1-.69.27.52.52,0,0,1-.27-.68l5-11.41a.52.52,0,0,1,.48-.31h0a.53.53,0,0,1,.48.31l4.9,11.41a.51.51,0,0,1-.48.72Z" style="fill:#ebebeb"></path><path d="M704.83,197.33a.52.52,0,0,1-.48-.31l-4.43-10.3L695.44,197a.53.53,0,0,1-.69.27.52.52,0,0,1-.27-.68l5-11.41a.52.52,0,0,1,.48-.31h0a.53.53,0,0,1,.48.31l4.9,11.41a.51.51,0,0,1-.48.72Z" style="fill:#ebebeb"></path><path d="M704.83,181.45a.52.52,0,0,1-.48-.31l-4.43-10.3-4.48,10.3a.53.53,0,0,1-.69.27.52.52,0,0,1-.27-.68l5-11.41a.52.52,0,0,1,.48-.31h0a.53.53,0,0,1,.48.31l4.9,11.41a.51.51,0,0,1-.48.72Z" style="fill:#ebebeb"></path><path d="M704.83,165.57a.52.52,0,0,1-.48-.31L699.92,155l-4.48,10.3a.53.53,0,0,1-.69.27.52.52,0,0,1-.27-.68l5-11.41a.52.52,0,0,1,.48-.31h0a.53.53,0,0,1,.48.31l4.9,11.41a.51.51,0,0,1-.48.72Z" style="fill:#ebebeb"></path><path d="M704.83,149.7a.53.53,0,0,1-.48-.32l-4.43-10.3-4.48,10.3a.52.52,0,0,1-.69.27.52.52,0,0,1-.27-.68l5-11.41a.52.52,0,0,1,.48-.31h0a.53.53,0,0,1,.48.31l4.9,11.41a.52.52,0,0,1-.27.68A.54.54,0,0,1,704.83,149.7Z" style="fill:#ebebeb"></path><path d="M704.83,133.82a.53.53,0,0,1-.48-.32l-4.43-10.3-4.48,10.3a.52.52,0,0,1-.69.27.52.52,0,0,1-.27-.68l5-11.41a.52.52,0,0,1,.48-.31h0a.53.53,0,0,1,.48.31l4.9,11.41a.52.52,0,0,1-.27.68A.54.54,0,0,1,704.83,133.82Z" style="fill:#ebebeb"></path><path d="M704.83,117.94a.53.53,0,0,1-.48-.32l-4.43-10.3-4.48,10.3a.52.52,0,0,1-.69.27.52.52,0,0,1-.27-.68l5-11.41a.52.52,0,0,1,.48-.31h0a.52.52,0,0,1,.48.32l4.9,11.4a.52.52,0,0,1-.27.68A.54.54,0,0,1,704.83,117.94Z" style="fill:#ebebeb"></path><path d="M704.83,102.06a.53.53,0,0,1-.48-.32l-4.43-10.3-4.48,10.3a.52.52,0,0,1-.69.27.52.52,0,0,1-.27-.68l5-11.41a.52.52,0,0,1,.48-.31h0a.52.52,0,0,1,.48.32l4.9,11.4a.52.52,0,0,1-.27.68A.54.54,0,0,1,704.83,102.06Z" style="fill:#ebebeb"></path><path d="M704.83,86.18a.53.53,0,0,1-.48-.32l-4.43-10.3-4.48,10.3a.52.52,0,0,1-.69.27.52.52,0,0,1-.27-.68l5-11.41a.52.52,0,0,1,.48-.31h0a.54.54,0,0,1,.48.32l4.9,11.4a.52.52,0,0,1-.27.68A.54.54,0,0,1,704.83,86.18Z" style="fill:#ebebeb"></path><path d="M679.7,0V321.11a.51.51,0,0,1-.51.52.53.53,0,0,1-.53-.52V0Z" style="fill:#ebebeb"></path><path d="M674.22,318.58a.52.52,0,0,1-.21,0,.51.51,0,0,1-.27-.68l5-11.41a.51.51,0,0,1,.47-.31h0a.52.52,0,0,1,.48.31l4.91,11.41a.52.52,0,0,1-.27.68.53.53,0,0,1-.69-.27L679.18,308l-4.49,10.3A.5.5,0,0,1,674.22,318.58Z" style="fill:#ebebeb"></path><path d="M674.22,302.7a.52.52,0,0,1-.21,0,.51.51,0,0,1-.27-.68l5-11.41a.51.51,0,0,1,.47-.31h0a.52.52,0,0,1,.48.31L684.57,302a.52.52,0,0,1-.27.68.53.53,0,0,1-.69-.27l-4.43-10.3-4.49,10.3A.5.5,0,0,1,674.22,302.7Z" style="fill:#ebebeb"></path><path d="M674.22,286.83a.54.54,0,0,1-.21-.05.51.51,0,0,1-.27-.68l5-11.41a.51.51,0,0,1,.47-.31h0a.52.52,0,0,1,.48.31l4.91,11.41a.52.52,0,0,1-1,.41l-4.43-10.3-4.49,10.3A.51.51,0,0,1,674.22,286.83Z" style="fill:#ebebeb"></path><path d="M674.22,271a.54.54,0,0,1-.21-.05.51.51,0,0,1-.27-.68l5-11.41a.51.51,0,0,1,.47-.31h0a.52.52,0,0,1,.48.31l4.91,11.41a.52.52,0,0,1-1,.41l-4.43-10.3-4.49,10.3A.51.51,0,0,1,674.22,271Z" style="fill:#ebebeb"></path><path d="M674.22,255.07a.54.54,0,0,1-.21,0,.51.51,0,0,1-.27-.68l5-11.41a.51.51,0,0,1,.47-.31h0a.52.52,0,0,1,.48.31l4.91,11.41a.52.52,0,0,1-1,.41l-4.43-10.3-4.49,10.3A.51.51,0,0,1,674.22,255.07Z" style="fill:#ebebeb"></path><path d="M674.22,239.19a.54.54,0,0,1-.21-.05.51.51,0,0,1-.27-.68l5-11.41a.51.51,0,0,1,.47-.31h0a.51.51,0,0,1,.48.32l4.91,11.4a.52.52,0,0,1-.27.68.52.52,0,0,1-.69-.27l-4.43-10.3-4.49,10.3A.51.51,0,0,1,674.22,239.19Z" style="fill:#ebebeb"></path><path d="M674.22,223.31a.54.54,0,0,1-.21-.05.51.51,0,0,1-.27-.68l5-11.41a.51.51,0,0,1,.47-.31h0a.53.53,0,0,1,.48.32l4.91,11.4a.52.52,0,0,1-1,.41l-4.43-10.3L674.69,223A.51.51,0,0,1,674.22,223.31Z" style="fill:#ebebeb"></path><path d="M684.09,207.43a.53.53,0,0,1-.48-.32l-4.43-10.3-4.49,10.3a.52.52,0,0,1-1-.41l5-11.41a.51.51,0,0,1,.47-.31h0a.53.53,0,0,1,.48.32l4.91,11.4a.52.52,0,0,1-.27.68A.54.54,0,0,1,684.09,207.43Z" style="fill:#ebebeb"></path><path d="M684.09,191.55a.53.53,0,0,1-.48-.32l-4.43-10.3-4.49,10.31a.52.52,0,0,1-1-.42l5-11.41a.51.51,0,0,1,.47-.31h0a.53.53,0,0,1,.48.32l4.91,11.4a.53.53,0,0,1-.27.69A.78.78,0,0,1,684.09,191.55Z" style="fill:#ebebeb"></path></g><g id="freepik--speech-bubble--inject-144"><path d="M403.29,92.68a35.8,35.8,0,0,1-59.83,22.66L325.55,118l9-15.49a35.81,35.81,0,1,1,68.78-9.8Z" style="fill:#fff"></path><path d="M403.29,92.68a36,36,0,0,1-7.22,18.16,39.64,39.64,0,0,1-3.25,3.73,37.17,37.17,0,0,1-3.78,3.2,36.27,36.27,0,0,1-18.28,7.11,35.86,35.86,0,0,1-5,.1,31.73,31.73,0,0,1-5-.52,36.06,36.06,0,0,1-17.72-8.75l.43.13-17.9,2.75-1.3.2.66-1.14,8.91-15.52,0,.61a36.21,36.21,0,0,1,2.2-31.92,36.61,36.61,0,0,1,11.22-11.94,36.08,36.08,0,0,1,15.28-5.73,35.72,35.72,0,0,1,30,10A36,36,0,0,1,403.29,92.68Zm0,0a35.41,35.41,0,0,0-40.61-38.75,35.18,35.18,0,0,0-14.79,5.84,36.84,36.84,0,0,0-10.71,11.69,35.32,35.32,0,0,0-4.55,15.15,35.82,35.82,0,0,0,2.52,15.6l.13.32-.17.3-9,15.45-.65-.94,17.94-2.51.24,0,.18.17A35.29,35.29,0,0,0,361,123.79a30.44,30.44,0,0,0,4.86.59,34.84,34.84,0,0,0,4.9,0,35.26,35.26,0,0,0,9.56-2.1,33.42,33.42,0,0,0,8.64-4.66,32.67,32.67,0,0,0,7-6.85A36,36,0,0,0,403.29,92.68Z" style="fill:#263238"></path><path d="M349.23,88.93a3.3,3.3,0,1,0,3.3-3.29A3.3,3.3,0,0,0,349.23,88.93Z" style="fill:#263238"></path><path d="M365,88.93a3.3,3.3,0,1,0,3.3-3.29A3.3,3.3,0,0,0,365,88.93Z" style="fill:#263238"></path><path d="M380.85,88.93a3.3,3.3,0,1,0,3.3-3.29A3.3,3.3,0,0,0,380.85,88.93Z" style="fill:#263238"></path></g><g id="freepik--character-2--inject-144"><path d="M279.07,458h82.28L331.12,295.64H257.19S278.94,457.3,279.07,458Z" style="fill:#f7a9a0"></path><polygon points="326.19 295.64 305.86 458.06 279.07 457.98 257.19 295.64 326.19 295.64" style="opacity:0.1"></polygon><path d="M223.27,458h72.46l7.88-101.68c.9-.49,16.54-7.25,16.54-7.25.84-2.12,10.45-50.86,11-53.41,0-.06,0-.1,0-.1l-88.19.1s-20,41.16-10.41,74.24C233.08,371.81,227.77,417.52,223.27,458Z" style="fill:#f7a9a0"></path><path d="M242.93,295.64s-14.05,31.08-14.28,50.53-4.17,101-4.17,101l134.69-.94s-10.47-86.72-16.94-115.06c-2.08-9.08-11.13-35.57-11.13-35.57Z" style="fill:#FFC727"></path><g style="opacity:0.1"><path d="M299.06,378.66a109.39,109.39,0,0,1,12.51-24.48c3.8-5.12,9.1-9,14.62-12-4.35,3.74-8.74,7.44-12.22,11.95-5.43,7.85-9.86,16.4-14.91,24.52Z"></path><path d="M311,363.3a20.7,20.7,0,0,1,5.13-7.05,18,18,0,0,1,7.56-4.39c-1,1.09-2.09,2-3.12,3-3.06,2.81-6.25,5.94-9.57,8.45Z"></path></g><path d="M313.7,203c33.41,33.59,56.23,57.24,57.81,75.08,2.19,24.7-9.36,24.74-16.12,24.44-18.39-.82-43.77-58.44-53.84-87.53C291.77,186.74,306.37,195.61,313.7,203Z" style="fill:#f7a9a0"></path><path d="M339.54,291.28c-15-18.4-30.62-55-38-76.29-9.78-28.25,4.82-19.38,12.16-12l4.85,4.89Z" style="fill:#000102;opacity:0.1"></path><path d="M263,180c.71.81,1.53,1.75,1.3,2.9a8.94,8.94,0,0,1-1.75,2.74,9.17,9.17,0,0,0-1.44,2.71,8.49,8.49,0,0,0,.95,6.36c2.5,4.48,7.68,5.87,12.33,7,5.65,1.41,11.36,2.73,17,4.27a22.84,22.84,0,0,1,6.42,2.52,10.15,10.15,0,0,1,4.07,5.33,9.89,9.89,0,0,0,4,4.95,22.66,22.66,0,0,0,5.73,2.17,19.63,19.63,0,0,1,5.7,2.26,13.71,13.71,0,0,1,4.13,4.6c2.28,3.7,3.84,7.82,6.69,11.17a1.32,1.32,0,0,0,2.2-.52c1.91-4.27,1.15-9.26-1-13.27a26.71,26.71,0,0,0-4.25-5.66c-.87-.92-1.79-1.77-2.73-2.62a7.71,7.71,0,0,1-2.31-2.45c-.8-1.93.59-4.36.8-6.34a11.84,11.84,0,0,0-.59-5,13.36,13.36,0,0,0-6.43-7.62,19.36,19.36,0,0,0-5.24-1.41c-2-.38-3.23-1.25-3.46-3.42-.43-3.47.16-7-2.83-9.55-2.55-2.19-6.18-2.64-9.43-2.69s-8,.29-10.16-2.85-1.09-7.73-1.53-11.29a13.4,13.4,0,0,0-5.83-9.34,9.7,9.7,0,0,0,1.28-2.16.27.27,0,0,0-.48-.22,12.24,12.24,0,0,1-2,2.15,1.22,1.22,0,0,0-.61.47c-2.55,1.93-5.8,3.11-8.51,4.69-4,2.29-7,5.87-6.6,10.7a13.55,13.55,0,0,0,2.4,6.72A26.22,26.22,0,0,0,263,180Z" style="fill:#263238"></path><path d="M274.79,155.15c-4.71,3.36-10.54,5-14.9,8.82a8.56,8.56,0,0,0-3,7.47,8,8,0,0,0,3.95,6.92,4.33,4.33,0,0,1,1.5,5.65c-1.36,3.33-3.94,7.06-1.71,10.49a11,11,0,0,0,1.84,2c3.82,2.89,8.52,4.22,13.15,5.41,3.74.94,7.54,1.67,11.33,2.51s7.76,1.59,10.82,4.05c-3.18-2.27-7.2-2.76-10.92-3.57s-7.62-1.38-11.41-2.24c-5.43-1.32-13.94-3.41-16.32-9.07-1.21-3.48,1-6.94,2.33-10a3.46,3.46,0,0,0-1.17-4.59,8.91,8.91,0,0,1-3.74-4.61c-1.19-3.85-.36-8.4,2.9-11,4.51-3.82,10.4-5.22,15.32-8.35Z" style="fill:#263238"></path><path d="M294.06,178.91c2.7.08,5.66-.29,8.13,1a7.63,7.63,0,0,1,2.23,2.53c1.42,2.41,1.18,5.49,2,7.94.54,2.25,2.92,2.48,4.84,3,9.77,2.48,11.41,9.51,8.31,18.27a6.16,6.16,0,0,0,0,3.19,5.85,5.85,0,0,1-.22-3.24c.56-3.13,1.66-6.4.72-9.52a9.76,9.76,0,0,0-3.28-5.18,16.06,16.06,0,0,0-5.76-2.56c-2.12-.58-4.87-1.15-5.43-3.71-.87-2.71-.54-5.44-1.75-7.87-1.68-3.9-6.19-3.51-9.77-3.92Z" style="fill:#263238"></path><path d="M242.93,295.64h88.19l-6.5-31.52s6.52-8.12,6-15.29c-1.1-15-26.91-50-29-51.8-8.26-7.34-19.08-7.52-25.32-1.84C257.07,212.7,256.18,268,256.18,268,249.29,277.19,242.93,295.64,242.93,295.64Z" style="fill:#FFC727"></path><path d="M296.63,260.25a65.75,65.75,0,0,1,13.05.56c2.17.34,4.33.82,6.49,1.36,1.08.27,2.16.49,3.24.7a10.49,10.49,0,0,0,3.38.25c.1,0,.13.19,0,.21a13.85,13.85,0,0,1-6.22.25c-2.2-.32-4.41-.78-6.61-1.14-4.44-.71-8.89-1.42-13.32-1.71C296.46,260.72,296.43,260.25,296.63,260.25Z" style="fill:#263238"></path><path d="M287.15,267.21a69.72,69.72,0,0,1,10.34-2.56,44.63,44.63,0,0,1,5.3-.51c.85,0,1.7-.06,2.56-.07s1.9.16,2.83.14c.1,0,.14.2,0,.21-.88.05-1.74.31-2.61.44l-2.63.37c-1.75.26-3.5.54-5.26.77-3.52.47-7,1-10.5,1.61C287,267.64,287,267.27,287.15,267.21Z" style="fill:#263238"></path><path d="M280.83,195.38c2.27,6.3,12.35,25.84,14.84,29.92,4,6.52,18.16,18.43,19.86,18.44s1.68-12.41,1-18.22c-.15-1.23-14.09-30-14.09-30Z" style="fill:#f7a9a0"></path><path d="M346.1,296.74c-8.21-8.93.57-30.54,12.61-66.52,2.11-6.31,48.69-14.47,48.34-7.36-.45,8.95-14.81,48.94-20.6,58.29C375.05,299.57,355.69,307.17,346.1,296.74Z" style="fill:#f7a9a0"></path><path d="M400.17,246.72c5.12-11.22,11.34-27.46,9.56-32.82-1.86-5.62-9.2-25.11-12.37-29.09s-16.9-22.35-21.44-22.54c-3.64-.15-4.93,8.85,1.56,17.67,5.7,7.75,7.85,13,9.42,15.28s2.38,12.87-1.08,15.11c-2,1.33-8.85.07-11.25-3.59s1-10.87-.86-16.47-8.9-9.52-10.45-7.93.14,3.87-.34,12.31c-.31,5.43-6.27,15.15-5.57,25.27.35,5.09-.86,17.18-.86,17.18Z" style="fill:#f7a9a0"></path><path d="M371.92,185.15a7.9,7.9,0,0,1-2.4-3.66,3.22,3.22,0,0,1,.1-1.87,3.19,3.19,0,0,1,.52-.87,1.57,1.57,0,0,1,.86-.62c.1,0,.05-.15,0-.1s-.39.13-.57.21a2.13,2.13,0,0,0-.44.26,2.7,2.7,0,0,0-.68.75,3.34,3.34,0,0,0-.42,2.14,5.48,5.48,0,0,0,3,3.86S372,185.2,371.92,185.15Z" style="fill:#263238"></path><rect x="381.87" y="141.56" width="0.78" height="36.25" transform="translate(165.67 -193.46) rotate(35.81)" style="fill:#FFC727"></rect><rect x="381.87" y="141.56" width="0.78" height="36.25" transform="translate(165.67 -193.46) rotate(35.81)" style="opacity:0.5"></rect><path d="M380.26,168.7a3.68,3.68,0,1,1-.52-5.52A3.93,3.93,0,0,1,380.26,168.7Z" style="fill:#FFC727"></path><rect x="385.51" y="142.74" width="0.78" height="23.81" transform="translate(163.44 -196.56) rotate(35.81)" style="fill:#FFC727"></rect><rect x="385.51" y="142.74" width="0.78" height="23.81" transform="translate(163.44 -196.56) rotate(35.81)" style="opacity:0.5"></rect><g style="opacity:0.6000000000000001"><g style="opacity:0.5"><path d="M387.42,216.23l-35.63.05s.77-1.5,1.72-1.83,4.64-.3,8.26-1.25,6-4.25,6.18-5.54c.09-.94-.81-24.31-2-25.79-2.31-2.88-26.65-28.11-26.65-28.11l60.43-.09S375.46,179,373.16,181.86c-1.19,1.48-2,24.85-1.92,25.8.14,1.29,2.57,4.57,6.19,5.51s7.31.91,8.27,1.23S387.42,216.23,387.42,216.23Z" style="fill:#ebebeb"></path><path d="M387.42,216.23c-.21,0-35.66.19-35.84.18a4.06,4.06,0,0,1,2-2.1c4.2-.73,9.07-.35,12.29-3.64a5.9,5.9,0,0,0,2-3.19c-.07-3.94-.28-7.89-.5-11.82A109.54,109.54,0,0,0,366,182.6a2,2,0,0,0-.6-1c-2.74-3.1-8.82-9.39-11.71-12.45l-14.6-15.18-.38-.39h.55l60.43-.05h.44l-.31.32L385.31,169c-2.92,3.12-8.91,9.36-11.67,12.49-.92,1-.79,2.42-1,3.65-.4,3.48-.6,7-.81,10.49-.22,3.93-.43,7.88-.49,11.83a2.64,2.64,0,0,0,.38,1.2c2.21,4.1,7.06,5.06,11.33,5.36a20.94,20.94,0,0,1,2.61.34,3.75,3.75,0,0,1,1.79,1.85Zm0,0a3.75,3.75,0,0,0-1.8-1.84,24.93,24.93,0,0,0-2.6-.31c-4.31-.27-9.19-1.21-11.45-5.33a4.49,4.49,0,0,1-.4-2.59c.31-7.88.32-15.84,1.59-23.65.17-.89,1-1.49,1.54-2.17l3.56-3.87,7.22-7.67,14.51-15.26c1.18.8-60.49.23-60.29.45l.17-.39L354,168.81c2.44,2.58,8.51,9,10.81,11.52.45.5.9,1,1.31,1.51a12.42,12.42,0,0,1,.67,3.29c.75,7,1,14,1.27,21a4.48,4.48,0,0,1-.4,2.63,10,10,0,0,1-6.27,4.64c-2.55.67-5.24.69-7.8,1.13a3.62,3.62,0,0,0-1.71,1.78l-.12-.18,35.63.07Z" style="fill:#263238"></path></g><path d="M396.24,153.86c-3.48,3.71-20.11,21.48-22,23.39-2.15,2.16-3.73,2.78-4.68,2.78s-2.52-.62-4.68-2.77c-1.91-1.9-18.64-19.62-22.13-23.32Z" style="fill:#c7c7c7;opacity:0.6000000000000001"></path><path d="M387.11,163.61c-5.35,5.71-11.68,12.43-12.88,13.64-2.15,2.16-3.73,2.78-4.68,2.78s-2.52-.62-4.68-2.77c-1.21-1.2-7.55-7.91-12.92-13.59Z" style="fill:#FFC727"></path></g><rect x="365.22" y="172.75" width="1" height="5.27" transform="translate(-21.16 297.18) rotate(-43.1)" style="fill:#fff"></rect><rect x="353.2" y="150.56" width="1" height="23.97" transform="translate(-15.64 285.48) rotate(-43.09)" style="fill:#fff"></rect><rect x="368.35" y="182.67" width="1" height="23.88" transform="translate(-8.02 16.03) rotate(-2.46)" style="fill:#fff"></rect><path d="M408.93,210.24c0-7.22-1.7-18.18-8-26.64-4.25-5.72-29.55-8.59-31.34-4.54s1.51,6.16,6.77,8.69c1.92.92,13.49,3.52,13.84,6.51a94.46,94.46,0,0,1,.09,12l14.2-.59Z" style="fill:#f7a9a0"></path><path d="M371,177.92c4.9-2.43,11.49-1.21,17.77.44.1,0,.06.18,0,.15-1.6-.42-12.6-1.91-17.72-.49C371,178,371,178,371,177.92Z" style="fill:#263238"></path><path d="M409.39,208.6a42.5,42.5,0,0,0-8.45-25c-4.25-5.72-27.19-3.39-29,.66s2.77,7.36,9.17,8.87c2.07.48,10.3.09,10.65,3.09.5,4.3,1.16,10.46,1.16,10.46l12.38,1.09Z" style="fill:#f7a9a0"></path><path d="M393,204.72c0-1.15,0-1.55,0-2.69s-.08-2.29-.2-3.43a8.76,8.76,0,0,0-.57-2.92,4.41,4.41,0,0,0-2-1.93c-1.93-1-4.3-.88-6.41-1-2.34-.11-6.93-.77-9.48-2.8a6.32,6.32,0,0,1-1.79-2,3.94,3.94,0,0,1-.64-1.85c.09-2.77,3-4.12,5.58-4.79,4.75-1.23,9.95-1,14.78-.49,1.18.14,2.37.3,3.55.46a9.52,9.52,0,0,1,3.92,1.16c1.91,1.19,3.8,5.1,4.39,6.3.05.09.18,0,.13-.09-.7-1.47-2.09-5.68-5.26-7.47a11.52,11.52,0,0,0-3.87-.95c-1.36-.22-2.73-.39-4.1-.53a50.23,50.23,0,0,0-8-.26,21.42,21.42,0,0,0-7.65,1.48,6.31,6.31,0,0,0-3.81,5.26c-.05,1.93,1.53,3.4,2.28,4a10.55,10.55,0,0,0,2.43,1.52,46.27,46.27,0,0,0,6.24,1.8c2.08.39,4.29.22,6.33.8a3.82,3.82,0,0,1,2.38,1.73,10.53,10.53,0,0,1,.78,2.87,31.6,31.6,0,0,1,.76,5.64C392.65,205.15,393,205.2,393,204.72Z" style="fill:#263238"></path><path d="M409.78,217.73c.36-3.22,4.27-12.39,4.28-16.72s-2.07-20.69-6.52-22.86c-5.59-2.74-6.13,10.13-5.86,15.74s-4.37,11.9-4.37,11.9l10.49,1.5Z" style="fill:#f7a9a0"></path><path d="M402,185a55.25,55.25,0,0,1,.2,5.61A35,35,0,0,1,402,196a15.76,15.76,0,0,1-1.71,4.94c-.39.78-.83,1.51-1.29,2.25s-1.08,1.55-1.56,2.36c-.06.08-.19,0-.14-.08a39.79,39.79,0,0,0,2.18-4.68,21.94,21.94,0,0,0,1.43-5.14c.52-3.51.28-7.09.76-10.6C401.73,184.88,401.94,184.91,402,185Z" style="fill:#263238"></path><path d="M396.55,206.85c-3,5.06-8.68,8.19-14.08,10.14a29.18,29.18,0,0,0-14,9.78,25.1,25.1,0,0,1,13.62-10.71c5.36-2,10.78-4.7,14.43-9.21Z" style="fill:#263238"></path><path d="M344,276.61c1-10.95,3.9-22,9.59-31.46-3.09,10.38-6,21.25-9.59,31.46Z" style="fill:#263238"></path><polygon points="371.67 341.31 283.95 372.23 272.67 330.73 354.44 301.91 371.67 341.31" style="fill:#455a64"></polygon><polygon points="354.44 301.91 320.68 336.54 272.67 330.73 354.44 301.91" style="fill:#37474f"></polygon><path d="M328.7,342.11l-10.77,3.8-4.87-13.83,10.76-3.79Zm-8.84-.23,4.81-1.69-2.78-7.88-4.81,1.7Z" style="fill:#FFC727"></path><polygon points="272.67 330.73 289.44 370.29 283.95 372.23 272.67 330.73" style="opacity:0.1"></polygon><path d="M276.07,194.42c9-1.76,8,39.69-2.14,46.18-4.65,3-10-2.41-10.58-12.9C262.62,215.31,269.61,195.69,276.07,194.42Z" style="fill:#f7a9a0"></path><path d="M269.36,198.21c-32.77,28.32-68.4,74.94-66.74,98.86.79,11.43,27,12,29.51,11.7,15.36-1.73,34.58-60.74,44.38-90.15C285.45,191.78,277.46,191.2,269.36,198.21Z" style="fill:#f7a9a0"></path><path d="M244.53,296.88c1.36-3.16,2.77-6.3,4.08-9.48l4-9.49c2.66-6.34,5.36-12.65,7.91-19s5.2-12.72,7.71-19.11c1.26-3.19,2.5-6.4,3.67-9.62s2.33-6.46,3.45-9.72a181.9,181.9,0,0,1-5.91,19.78c-2.26,6.5-4.81,12.9-7.36,19.29s-5.38,12.68-8.29,18.92S247.9,290.87,244.53,296.88Z" style="fill:#263238"></path><path d="M272.84,228.73a27.4,27.4,0,0,1,1.64-3.3c.31-.52.59-1.06.93-1.57s.63-1.05,1-1.56a9.2,9.2,0,0,1-1.21,3.54A10.27,10.27,0,0,1,272.84,228.73Z" style="fill:#263238"></path><path d="M204.52,301.68c6.37,9.6,22.43,14.41,67,24.3,6.17,1.37,27.54-39.58,21-41.38-8.21-2.27-40.54-9.29-43-9.5C229.11,273.29,200.21,295.16,204.52,301.68Z" style="fill:#f7a9a0"></path><path d="M274.08,283.32s18-1.85,27.77.1c13.07,2.61,23.29,10.25,27.37,13.71,8.53,7.22,24.16,30.58,18.22,36.26-5.38,5.13-20.15-19.55-20.15-19.55s19.21,22.68,11.6,27.68-23.13-24.64-23.13-24.64,19.21,23.75,10.55,27.66c-6.55,2.95-22.12-23.09-22.12-23.09S320.57,342,314,345.3c-7.3,3.68-23.18-19.46-23.18-19.46-18.21,5.64-29.29.47-36.69-3.85C252.31,320.94,274.08,283.32,274.08,283.32Z" style="fill:#f7a9a0"></path><path d="M321.15,305.57c2.35,2.58,4.75,5.18,6.87,8s4.13,5.65,6,8.61a60.06,60.06,0,0,1,6.09,12.23c-3.32-7.42-10.74-17.5-12.86-20.28s-4.08-5.66-6.19-8.44C321,305.58,321.09,305.51,321.15,305.57Z" style="fill:#263238"></path><path d="M311,313c2.86,3.42,5.83,6.72,8.54,10.28s4.95,7.13,7.4,10.84c.18.29,0,.3-.23,0-2.6-3.62-5.27-6.76-7.91-10.34s-5.13-7.27-7.89-10.74A.05.05,0,1,1,311,313Z" style="fill:#263238"></path><path d="M301.06,317.85c4.65,5,8.36,10.88,11.86,16.72.18.29-.1.27-.3,0-3.84-5.64-6.81-10.08-11.73-16.55C300.81,317.91,301,317.75,301.06,317.85Z" style="fill:#263238"></path><path d="M276.4,280.77l.06.14c-4.54-.87-9.08-1.76-13.62-2.58s-9.08-1.65-13.62-2.23a52.29,52.29,0,0,0-6.78-.58,38.44,38.44,0,0,0-6.69.7A40.57,40.57,0,0,0,223.26,281a33.87,33.87,0,0,1,12.24-5.75,32.09,32.09,0,0,1,6.86-.91,53.77,53.77,0,0,1,7,.47c4.59.63,9.14,1.51,13.68,2.48s9,2.13,13.49,3.43l.13,0-.07.1Z" style="fill:#263238"></path><path d="M280.83,195.38c.51,2,10.2,14.49,19.17,13.85,2.93-.22,2.47-16.22,2.47-16.22l.24-1.19,3.3-16.65-19.75-12-2.85-1.58s-.61,4.61-1.3,10.36c0,.27-.07.54-.1.82s-.09.63-.12.94c-.12.85-.23,1.73-.33,2.61-.07.66-.15,1.31-.2,2s-.13,1.39-.2,2.09A108.29,108.29,0,0,0,280.83,195.38Z" style="fill:#f7a9a0"></path><path d="M282.11,172a34.06,34.06,0,0,0,20.6,19.87l3.3-16.65-19.75-12-2.85-1.58S282.8,166.2,282.11,172Z" style="fill:#263238"></path><path d="M327.72,148.74c4.3,29.47-12.87,35.37-19.23,36.29-5.77.83-25.52,2.94-32.84-25.93s5-40.19,18.13-42.79S323.43,119.26,327.72,148.74Z" style="fill:#f7a9a0"></path><path d="M322.25,143.83a17.91,17.91,0,0,1-2.08-.26,3.41,3.41,0,0,1-2.08-.68,1.07,1.07,0,0,1-.1-1.32,2.67,2.67,0,0,1,2.58-.84,4,4,0,0,1,2.59,1.19A1.16,1.16,0,0,1,322.25,143.83Z" style="fill:#263238"></path><path d="M301.85,145.05a20.16,20.16,0,0,0,2-.6,3.46,3.46,0,0,0,1.95-1,1.1,1.1,0,0,0-.11-1.32,2.68,2.68,0,0,0-2.69-.41,4,4,0,0,0-2.36,1.59A1.16,1.16,0,0,0,301.85,145.05Z" style="fill:#263238"></path><path d="M308.94,169.5c.52.47,1,1.11,1.79,1.15a5.53,5.53,0,0,0,2.21-.61.07.07,0,0,1,.09.11,2.79,2.79,0,0,1-2.58,1.22,2.2,2.2,0,0,1-1.7-1.77C308.71,169.48,308.87,169.43,308.94,169.5Z" style="fill:#263238"></path><path d="M316.84,160.47s.79,3.52.93,5c0,.14-5,.87-7.92-2.1-.12-.12.06-.3.2-.22a10.45,10.45,0,0,0,6.46,1.36c.06-.41-1.38-5.32-1.15-5.36a12.66,12.66,0,0,1,3.37.43c-1.31-6.38-3.64-12.5-4.86-18.87a.2.2,0,0,1,.37-.13c2.9,6.24,4.57,13.55,6.1,20.1C320.54,161.47,317.44,160.66,316.84,160.47Z" style="fill:#263238"></path><path d="M316.53,165.14a8.51,8.51,0,0,1-3.13,3,3.88,3.88,0,0,1-2.3.38c-1.71-.28-1.91-1.81-1.73-3.15a9.06,9.06,0,0,1,.55-2.08A11,11,0,0,0,316.53,165.14Z" style="fill:#263238"></path><path d="M313.4,168.1a3.88,3.88,0,0,1-2.3.38c-1.71-.28-1.91-1.81-1.73-3.15C311.18,165.34,313.08,166.38,313.4,168.1Z" style="fill:#ff98b9"></path><path d="M319.1,150.24c0-.08.17.08.18.16.15,2.07.67,4.42,2.61,4.91.06,0,.06.12,0,.12C319.57,155.34,318.91,152.22,319.1,150.24Z" style="fill:#263238"></path><path d="M320.72,147.89c3.29-.6,4.24,6,1.19,6.58S318,148.39,320.72,147.89Z" style="fill:#263238"></path><path d="M322.07,148.06c.63.29,1.3.87,2,.84s1.33-.82,1.76-1.57c.05-.07.11,0,.13.06.2,1.27-.1,2.64-1.44,3s-2.27-.64-2.77-1.88C321.66,148.32,321.82,147.94,322.07,148.06Z" style="fill:#263238"></path><path d="M307.11,152.33c0-.08-.15.12-.13.2.37,2,.46,4.44-1.29,5.41-.06,0,0,.13,0,.11C307.94,157.39,307.79,154.2,307.11,152.33Z" style="fill:#263238"></path><path d="M305,150.47c-3.34.25-2.59,6.9.5,6.67S307.75,150.26,305,150.47Z" style="fill:#263238"></path><path d="M303.61,151.06c-.48.41-.93,1.11-1.56,1.22s-1.34-.53-1.88-1.17c-.06-.06-.1,0-.09.09.1,1.27.67,2.55,1.92,2.66s1.84-1.09,2-2.39C304,151.23,303.81,150.89,303.61,151.06Z" style="fill:#263238"></path><path d="M278.26,165.88A12.5,12.5,0,0,0,283,154.46a32.62,32.62,0,0,0,10.76-13.25c-.07.66-.56,5.38-.88,7.78,18.07-7.55,20.81-23.2,20.81-23.2,7.4,4.78,9.8,8.75,11.1,10.5,0,0-2.68-11.9-10.27-18.36-9.29-7.91-18.82-4-18.82-4a27.22,27.22,0,0,0-24.27,13.55C262,143.43,278.26,165.88,278.26,165.88Z" style="fill:#263238"></path><path d="M306.49,142.81a35.54,35.54,0,0,1-8.9,5.61s0,0,0,0a30.18,30.18,0,0,0,12-11.31,28.46,28.46,0,0,0,2.85-6.55,19.83,19.83,0,0,0,1-7.71.15.15,0,0,1,.3,0,23.12,23.12,0,0,1,.09,7.74,21.2,21.2,0,0,1-2.84,7.13,24.78,24.78,0,0,1-4.47,5.17" style="fill:#263238"></path><path d="M285.26,159s-7-8.9-11.11-6.34,1.59,15.73,6.64,17.28a5,5,0,0,0,6.58-3.09Z" style="fill:#f7a9a0"></path><path d="M275.87,156.41c-.08,0-.09.11,0,.13,3.55,1.2,5.56,4.31,7,7.57-1.1-1.22-2.55-1.85-4.2-.52-.08.07,0,.21.11.18a3.1,3.1,0,0,1,3.47.88,15.48,15.48,0,0,1,1.79,2.66c.18.3.73.1.59-.25l0-.08C284.44,162.56,280.64,156.57,275.87,156.41Z" style="fill:#263238"></path></g><g id="freepik--character-3--inject-144"><path d="M478.29,289.14s-.11.38-.29,1.09c0,.13-.07.27-.1.43l0,.12c0,.12-.07.25-.1.38-.1.39-.22.85-.36,1.36-.07.25-.14.53-.2.81-.64,2.43-1.53,5.83-2.62,10-.13.5-.26,1-.39,1.52a3.18,3.18,0,0,0-.1.33c-.86,3.32-1.83,7.08-2.91,11.2-.23.85-.46,1.72-.68,2.61-.92,3.55-1.91,7.33-2.94,11.31-.07.24-.14.48-.2.74-1.88,7.27-3.94,15.2-6.11,23.55-6.37,24.61-13.69,52.87-20.33,78.74-.23.87-.44,1.74-.67,2.62a7.77,7.77,0,0,0-.24.95c-.2.76-.4,1.52-.58,2.26l-.33,1.28c-.17.66-.35,1.33-.52,2h0c-.69,2.66-1.35,5.3-2,7.9h0c-.15.57-.29,1.14-.44,1.7h0q-.76,3-1.52,5.94H351.92c9-32.16,21-71.91,31.05-104.76,11.08-36.27,19.87-64.15,19.87-64.15Z" style="fill:#37474f"></path><path d="M467.12,289.15c-13.79,56.47-29,113.24-45.42,169,13.78-56.47,29.05-113.24,45.42-169Z" style="fill:#263238"></path><path d="M404.65,289.15c5.24,40.52,24.19,107.84,31.47,163,17-66.79,42.17-163,42.17-163Z" style="opacity:0.1"></path><path d="M521.32,458.05H437.27l-8.47-93.41c-4.53-2.09-11.93-5.56-11.93-5.56s-5.15-27.22-8.3-46.2v0c-1.95-11.77-3.56-21.56-3.87-23.4,0-.12,0-.2,0-.26v-.05h97.63s9.5,41.3,10.32,55.36c.26,4.51-1.22,18-1.22,18Z" style="fill:#37474f"></path><path d="M410.23,356c10.89,3.51,21.43,8.59,31.51,13.93a.35.35,0,0,1-.27.65c-10.61-4.31-21.42-8.42-31.78-13.31A.69.69,0,0,1,410.23,356Z" style="fill:#263238"></path><path d="M492.64,335.77c-.94-.39-17.8-.35-25.29-7.9-6.85-6.9-9-26.32-9.11-26.35a.26.26,0,0,0-.29.11c-.27.41-1,15.59,7,26.79,5.63,7.9,25.52,8.35,27.68,8C493,336.36,492.91,335.89,492.64,335.77Z" style="fill:#263238"></path><path d="M393.33,327.2c.8-.66,4.61-1.23,8.31-8.48a38.71,38.71,0,0,0,3.13-9c.43-1.86,1.81-10.92,1.93-11s.09,0,.11.12c.13.63-.73,8.93-1.11,11.05a33.77,33.77,0,0,1-3.19,10.38c-3.57,6.3-8.39,7.92-9.21,7.5C393.15,327.72,393.22,327.29,393.33,327.2Z" style="fill:#263238"></path><path d="M415.33,299.66c.05-.28.54-.29.51,0a264.92,264.92,0,0,0-1.16,26.65c0,4.13,1.15,27,8.39,26.05,1.22-.16,1.93-1.27,2.29-3.05.42-2.13-.14-4.84-.29-7-.35-4.81-.53-9.61-.49-14.43a130.25,130.25,0,0,1,2.8-26.71.23.23,0,0,1,.46.07c-1.17,12.35-2,24.7-1.31,37.11.33,6,2.46,15.09-3.77,15.41s-9-14.87-9.39-19C412.3,323.24,413.36,311,415.33,299.66Z" style="fill:#263238"></path><path d="M422.83,353a40.06,40.06,0,0,1,1.15,4.84,10.57,10.57,0,0,1,.3,3.91c0,.25-.38.24-.5.06a13.55,13.55,0,0,1-1.29-3.9c-.41-1.5-.84-3-1.2-4.51A.8.8,0,0,1,422.83,353Z" style="fill:#263238"></path><path d="M495.07,292.74c3.21,17.06,6.57,34.11,8.71,51.34,0,6.64,0,13.94.13,20.3,3,30.06,6.07,63.47,8.16,93.6-3.77-30-7.22-63.4-10.06-93.5,0-6-.07-12.05,0-18.11a23.88,23.88,0,0,0-.2-4.39c-1.79-14.83-4.78-34.36-6.78-49.24Z" style="fill:#263238"></path><path d="M391.08,323l118.77-.42c.27-.29-23.07-112.32-40-134.74-8.47-11.25-31.27-10.43-39.81,4.08C418.27,211.93,391.08,323,391.08,323Z" style="fill:#ebebeb"></path><path d="M381.71,348.75l30.12,8.54,11-27.24,8.09,27.24,86.71-8.54c.27-.28-17.18-116-45.51-157.55-.94-1.38-4.43-5.89-5.79-6.87L437,235.45l-3.13-48.3C413,198.89,381.71,348.75,381.71,348.75Z" style="fill:#263238"></path><rect x="382.07" y="282.25" width="95.65" height="1" transform="translate(86.42 665.88) rotate(-81.46)" style="fill:#37474f"></rect><polygon points="433.84 187.15 418.42 204.07 427.84 207.33 422.35 214.95 433.49 235.46 432.47 265.51 436.97 235.46 433.84 187.15" style="fill:#37474f"></polygon><path d="M484.83,198.74c29.54,40.55,61.88,97.32,51.47,111.16-11.6,15.43-49.61-22.59-50.69-25.31-1.22-3-14.7-40.94-20.23-76.2C459.32,169.72,477.52,188.72,484.83,198.74Z" style="fill:#eb9481"></path><path d="M484.83,198.74c29.54,40.55,61.88,97.32,51.47,111.16-11.6,15.43-49.61-22.59-50.69-25.31-1.22-3-14.7-40.94-20.23-76.2C459.32,169.72,477.52,188.72,484.83,198.74Z" style="fill:#263238"></path><path d="M485.61,284.59a357.55,357.55,0,0,1-12-35.62c-3.34-12.08-6.44-24.32-7.58-36.83,5.41,24,13.35,48.62,19.61,72.45Z" style="fill:#37474f"></path><path d="M465,217.18a54.89,54.89,0,0,1,3.64,10.58A21.32,21.32,0,0,1,465,217.18Z" style="fill:#37474f"></path><polygon points="466.32 184.32 476.55 211.25 458.13 210.18 462.03 223.97 442.53 238.13 432.47 265.51 436.97 235.46 466.32 184.32" style="fill:#37474f"></polygon><path d="M437.79,199.69c6.37,3.69,19.28-4.83,24.49-13.15.36-.57.86-24,1.14-28.73.06-1-30.05,5.47-30.05,5.47s2.33,10.07,1.8,18.3a10.37,10.37,0,0,1-.32,1.93c0,.09-.05.2-.06.32C434,187.48,434.52,197.8,437.79,199.69Z" style="fill:#eb9481"></path><path d="M434.79,183.83a18.45,18.45,0,0,0,3,.34c15.57.57,22.26-18.13,24.46-26.4-5.48.5-28.92,5.5-28.92,5.5s2.34,10.08,1.8,18.32a9.51,9.51,0,0,1-.31,1.92A1.84,1.84,0,0,0,434.79,183.83Z" style="fill:#263238"></path><path d="M470.48,124.23c2.3,10.76-5.84,40.57-13.88,46.68-11.65,8.86-29.43,8.28-36.63-5.43-7-13.29,4.31-52,13.17-57.38C446.19,100.12,467.09,108.34,470.48,124.23Z" style="fill:#eb9481"></path><path d="M439.93,140.86c0-.07.14.14.12.22-.57,2-.89,4.39.77,5.52.05,0,0,.13,0,.11C438.63,145.84,439.08,142.67,439.93,140.86Z" style="fill:#263238"></path><path d="M442.26,139.2c3.31.57,1.94,7.15-1.12,6.62S439.49,138.73,442.26,139.2Z" style="fill:#263238"></path><path d="M428.07,138.77c0-.08-.18.06-.2.15-.36,2.05-1.12,4.33-3.1,4.63-.06,0-.08.11,0,.11C427.08,143.82,428.05,140.77,428.07,138.77Z" style="fill:#263238"></path><path d="M426.69,136.26c-3.22-.93-4.85,5.59-1.86,6.45S429.4,137,426.69,136.26Z" style="fill:#263238"></path><path d="M445.77,136.63a26.74,26.74,0,0,1-2.61-.89,4.46,4.46,0,0,1-2.49-1.41,1.41,1.41,0,0,1,.21-1.72,3.5,3.5,0,0,1,3.54-.41,5.18,5.18,0,0,1,3,2.21A1.52,1.52,0,0,1,445.77,136.63Z" style="fill:#c7c7c7"></path><path d="M425,132.77c.95,0,1.82-.07,2.76-.12a4.51,4.51,0,0,0,2.79-.66,1.43,1.43,0,0,0,.28-1.71,3.52,3.52,0,0,0-3.29-1.38,5.17,5.17,0,0,0-3.51,1.27A1.52,1.52,0,0,0,425,132.77Z" style="fill:#c7c7c7"></path><path d="M438.35,160.47a3.13,3.13,0,0,1-2,.84,5.43,5.43,0,0,1-2.08-1,.07.07,0,0,0-.11.09,2.78,2.78,0,0,0,2.35,1.64,2.22,2.22,0,0,0,2-1.46C438.59,160.49,438.44,160.42,438.35,160.47Z" style="fill:#263238"></path><path d="M437.11,153.63a7.07,7.07,0,0,1-5.27,2.13,9,9,0,0,1-2.52-.41,2.88,2.88,0,0,1-.47-.15l-.43-.17a.5.5,0,0,1-.31-.54h0a1.29,1.29,0,0,1,.06-.21h0l0-.18c.28-1.58.93-3.93.93-3.93-.63.17-3.83.87-3.61.06,1.82-6.7,3.84-14.15,7.07-20.44a.19.19,0,0,1,.36.13c-1.49,6.51-4.12,12.72-5.73,19.23a12.33,12.33,0,0,1,3.48-.31c.21.11-1.33,4.53-1.4,5.25a.24.24,0,0,0,0,.07c2.57.89,4.72.51,7.65-.73C437.14,153.33,437.27,153.5,437.11,153.63Z" style="fill:#263238"></path><path d="M430.56,155.34a8.53,8.53,0,0,0,3.1,3,3.85,3.85,0,0,0,2.29.39c1.72-.26,1.93-1.78,1.76-3.13a9.2,9.2,0,0,0-.53-2.09A11,11,0,0,1,430.56,155.34Z" style="fill:#263238"></path><path d="M433.66,158.33a3.85,3.85,0,0,0,2.29.39c1.72-.26,1.93-1.78,1.76-3.13C435.9,155.58,434,156.6,433.66,158.33Z" style="fill:#ff98b9"></path><path d="M467.66,150.85c-4.63.63-7.43-5.14-8.2-8.08s3.34-18.09,1.74-22.55-5.92-7.39-9.73-6.81-9.21,4.77-11.88,4.15-2.52-6.56-4.41-6.81C431,110.18,425,119.56,423.65,124c0,0,2.73-20.46,22.82-19.55,19.6.89,25.33,13.61,26.23,19.67C474.41,135.74,467.66,150.85,467.66,150.85Z" style="fill:#c7c7c7"></path><path d="M439.69,152.21a9,9,0,0,1-5.3-11.62h0a9,9,0,1,1,7.48,12.14A9.47,9.47,0,0,1,439.69,152.21ZM435.52,141a7.83,7.83,0,1,0,10.07-4.59,8.07,8.07,0,0,0-1.9-.45A7.83,7.83,0,0,0,435.52,141Z" style="fill:#455a64"></path><path d="M421.11,147.89c-3.61-.82-5.64-5.45-4.53-10.3a10.78,10.78,0,0,1,3.27-5.73,5.62,5.62,0,0,1,9.38,2.15,10.66,10.66,0,0,1,.45,6.58c-1.05,4.6-4.55,7.77-8,7.4A4,4,0,0,1,421.11,147.89Zm-.47-15.12a9.59,9.59,0,0,0-2.88,5.09c-1,4.2.66,8.18,3.62,8.86s6.16-2.19,7.13-6.4a9.6,9.6,0,0,0-.39-5.83,4.79,4.79,0,0,0-3.24-3,3.54,3.54,0,0,0-.45-.08A5,5,0,0,0,420.64,132.77Z" style="fill:#455a64"></path><path d="M434.45,141.67l1-.72c-1.08-1.43-3.82-3.65-6.5-1.84l.68,1C432,138.49,434.35,141.54,434.45,141.67Z" style="fill:#455a64"></path><path d="M470.92,152.81l1.16-.3c-.14-.55-1.44-5.36-4-6.39-2.37-1-16.24-3-16.93-3.06l-.16,1.19c4.62.61,14.81,2.25,16.64,3C469.33,147.92,470.57,151.49,470.92,152.81Z" style="fill:#455a64"></path><path d="M459.74,147s7.7-9.2,11.93-6.38-2.15,16.58-7.53,18.07a5.33,5.33,0,0,1-6.87-3.47Z" style="fill:#eb9481"></path><path d="M469.74,144.5a.07.07,0,0,1,0,.14c-3.79,1.17-6,4.39-7.66,7.79,1.2-1.26,2.75-1.87,4.45-.42.09.08,0,.22-.11.19a3.28,3.28,0,0,0-3.7.83,15.82,15.82,0,0,0-2,2.75c-.2.31-.77.09-.62-.28a.2.2,0,0,0,0-.08C460.5,150.75,464.69,144.53,469.74,144.5Z" style="fill:#263238"></path><g style="opacity:0.2"><path d="M439.3,125.73a25.43,25.43,0,0,1-3.35-.55c-1.11-.3-2.15-.8-3.27-1.08a19.14,19.14,0,0,0-6.46-.18c-.19,0-.19.14,0,.12a16.75,16.75,0,0,1,6.75.68,21.42,21.42,0,0,0,5.44,1.38c4.29.39,8.46,1.29,11.87,4.05a0,0,0,0,0,0,0A21.18,21.18,0,0,0,439.3,125.73Z"></path><path d="M440,122.92a24.79,24.79,0,0,1-3.18-.52c-1-.28-2-.76-3.1-1a18.23,18.23,0,0,0-6.13-.17c-.17,0-.17.13,0,.12a15.76,15.76,0,0,1,6.4.65,20.36,20.36,0,0,0,5.16,1.3c4.07.36,8,1.22,11.25,3.84a0,0,0,1,0,0,0A20.12,20.12,0,0,0,440,122.92Z"></path></g><path d="M434.49,181.79l7.32,16.5,20.85-20.06,6.13,6.58s-20,32.52-20.13,31l-7.41-14.18L431.65,212l-.09-25.23Z" style="fill:#ebebeb"></path><path d="M430.9,199.55c.13-4.16.14-8.36.45-12.52,0-.14.24-.22.28,0,1,4,.42,19.91.57,23.72l0-.05c.4-.45,8.92-9.16,9-9,1.58,2.24,7,12.56,7.39,13.51,3-5.46,16.74-25.16,20.36-30.35a.15.15,0,0,1,.26.14c-2.64,5.74-20.1,32.32-20.35,32.25a162.47,162.47,0,0,1-7.76-15c-1.42,1.88-10,11.67-10,11.05A127.55,127.55,0,0,1,430.9,199.55Z" style="fill:#263238"></path><path d="M376.86,234.84a15,15,0,0,1-3.32-5.25,15.16,15.16,0,0,1,25.18-15.81l-.85.83-9.55,9.19,0,0-.46.44h0l0,0h0l0,0,0,0-.71.69-9.29,9Z" style="fill:#FFC727"></path><path d="M377.72,234a14,14,0,0,1,5.09-22.91,14,14,0,0,1,15.06,3.5l-9.55,9.19,0,0-.46.44h0l0,0h0l0,0,0,0-.71.69Z" style="fill:#fff;opacity:0.5"></path><path d="M387.84,224.27h-.1s.24-.18.56-.43Z" style="fill:#FFC727"></path><path d="M395.53,215.42c-.47.82-7.79,8.85-7.79,8.85s1.18-10.83,1.49-11.74,2.28-.76,3.83-.05S396,214.6,395.53,215.42Z" style="fill:#FFC727;opacity:0.5"></path><path d="M387,212.46c.24.92.74,11.81.74,11.81s-6.8-8.53-7.22-9.38,1.07-2.16,2.67-2.76S386.75,211.54,387,212.46Z" style="fill:#FFC727;opacity:0.5"></path><path d="M378.9,216.42c.82.48,8.84,7.85,8.84,7.85s-10.8-1.22-11.7-1.53-.76-2.3-.06-3.85S378.07,215.94,378.9,216.42Z" style="fill:#FFC727;opacity:0.5"></path><path d="M376,225c.91-.25,11.76-.71,11.76-.71s-8.47,6.8-9.32,7.22-2.16-1.09-2.76-2.69S375.06,225.22,376,225Z" style="fill:#FFC727;opacity:0.5"></path><path d="M387,225.07l.72-.79h0a.84.84,0,0,1,0,.1Z" style="fill:#FFC727"></path><path d="M387.74,224.36v-.08h0l0,.05Z" style="fill:#FFC727"></path><path d="M387.79,224.32l-.05,0h.09Z" style="fill:#FFC727"></path><path d="M384.83,225.78c-.1-.23-2,0-1.58.77S384.94,226,384.83,225.78Z" style="fill:#fff;opacity:0.5"></path><path d="M381,225.87c0-.25-1.81-.75-1.76.09S381,226.11,381,225.87Z" style="fill:#fff;opacity:0.5"></path><path d="M386.09,220.94c.22-.11,0-2-.77-1.59S385.87,221,386.09,220.94Z" style="fill:#fff;opacity:0.5"></path><path d="M389.77,219.06c.21.13,1.67-1,1-1.49S389.56,218.93,389.77,219.06Z" style="fill:#fff;opacity:0.5"></path><path d="M381.53,221.3c.12-.22-1.09-1.63-1.52-.9S381.4,221.51,381.53,221.3Z" style="fill:#fff;opacity:0.5"></path><g style="opacity:0.6000000000000001"><polygon points="382.26 219.97 388.7 266.77 421.4 266.77 427.84 219.97 382.26 219.97" style="fill:#ebebeb"></polygon><path d="M382.26,220l6.61,46.78c-1-.38,32.75-.1,32.53-.21-.73,1.29,6.47-46.85,6.27-46.59,1.07.49-45.62-.12-45.41,0Zm0,0,45.58-.17H428l0,.19-6.38,46.82,0,.2h-.21c-.18,0-32.7,0-32.85-.06s-6.21-46.87-6.29-47Z" style="fill:#263238"></path></g><polygon points="385.64 220.11 391.44 263.4 418.65 263.4 424.48 219.97 385.64 220.11" style="fill:#c7c7c7;opacity:0.6000000000000001"></polygon><polygon points="388.43 240.9 391.45 263.4 418.65 263.4 421.67 240.9 388.43 240.9" style="fill:#FFC727;opacity:0.6000000000000001"></polygon><rect x="412.56" y="252.59" width="8" height="1" transform="translate(114.13 635.34) rotate(-82.93)" style="fill:#fff"></rect><rect x="405.07" y="233.27" width="27.81" height="1" transform="translate(135.04 620.52) rotate(-82.87)" style="fill:#fff"></rect><path d="M531.92,311.68c-12.94,4.9-44.48.79-94.84-20.88-7-3,19.7-50.2,27.3-47.38,9.59,3.55,46,19.41,48.51,20.9C534.11,276.94,540.7,308.36,531.92,311.68Z" style="fill:#eb9481"></path><path d="M484.24,263.76S482,261.4,471.92,247c-6.93-10-30.19-29.79-63.36-21.84-12.71,3.05-16.12,13.29-2.35,12.47,9.69-.57,16.36-1.81,19.57-1.11,0,0-11.06,9.93-10.07,18.49a158,158,0,0,0,4.15,22.18,32.72,32.72,0,0,0,4.22-.41,18.13,18.13,0,0,0,13.36,13.93Z" style="fill:#eb9481"></path><path d="M463.79,238.55c-6.17-1.54-19.31-4.59-30.92-3.35-12.89,1.38-37.37,7.52-36.25,17,.82,7,10.37,5.45,10.37,5.45s-9.58,4.67-7.46,10.8c1.93,5.6,9.24,4,9.24,4s-5.32,3.83-2.43,8.86c3.49,6,14.08-3,22.9.1C431.22,282.11,463.79,238.55,463.79,238.55Z" style="fill:#eb9481"></path><path d="M436.6,248.59c-6-.5-20.05,1.88-29.51,8.84-.21.16-.21.4,0,.3a127.54,127.54,0,0,1,29.51-9C436.69,248.7,436.67,248.59,436.6,248.59Z" style="fill:#263238"></path><path d="M437.62,261.64c-5.26.11-19.59,3.22-28.93,10.59-.21.17-.19.42,0,.3a136.17,136.17,0,0,1,28.92-10.76A.07.07,0,0,0,437.62,261.64Z" style="fill:#263238"></path><path d="M475.54,246.72l-26.21,54.07s75.88,21.42,84.83,10.5-6.9-40-19.07-46.66S475.54,246.72,475.54,246.72Z" style="fill:#263238"></path><path d="M520.83,272.7c-1.68-1.83-5.55-7.83-13.42-12.2-6.87-3.81-26.9-12.44-32-13.64-.13,0-.18.08-.05.14,4.39,1.85,23.6,10.42,31,14.41,7.7,4.17,12.65,9.74,14.37,11.37C520.78,272.86,520.91,272.79,520.83,272.7Z" style="fill:#37474f"></path><path d="M465.41,298.76c1.19-3.59,2.95-7.05,4.49-10.5s3.35-7.14,5.06-10.69,9-17.51,10.85-21c.08-.15.31,0,.24.13-1.61,3.6-8,17.87-9.68,21.34s-3.37,7-5.15,10.39-3.5,7.12-5.65,10.39C465.52,298.89,465.38,298.86,465.41,298.76Z" style="fill:#37474f"></path><path d="M451.31,296.65q-1.21,2.13-2.36,4.29l.3.11a280.2,280.2,0,0,0,54.3,12.55,111.07,111.07,0,0,0,18.59.78c-24.65-2.27-48.6-8.55-72.74-13.84l.17.36c.6-1.4,1.17-2.82,1.74-4.25Z" style="fill:#37474f"></path></g><g id="freepik--character-4--inject-144"><polygon points="527.27 458.04 598.78 458.04 625.26 295.48 555.37 295.43 527.27 458.04" style="fill:#ad6359"></polygon><path d="M555.37,295.43s1,33,10.54,60.49c.6,1.76,1.23,3.46,1.87,5.12a60.88,60.88,0,0,1,7.43,2.86c.55.25,1.13.51,1.73.8,3,1.4,6.76,3.28,11.14,5.78,0,0,0,.28,0,.84,0,.22,0,.49,0,.8.12,2.42,4.47,73.57,5.06,85.86H668.1c-1.16-11.61-2.32-23-3.45-33.74-1.56-14.95-3-38.58-4.33-49.6,0,0,9.54-25.89-12.77-79.29Z" style="fill:#ad6359"></path><path d="M555.37,295.43,527.27,458H668.1l-7.78-83.4s5.58-10.43,3.47-28.83-16.24-50.46-16.24-50.46Z" style="fill:#455a64"></path><g style="opacity:0.5"><path d="M599,377.11c-5.26-4.86-10.29-10.44-15.54-15.3-2.23-2-6.32-4.36-8.85-6.11-3-2-6.08-4-9-6.21a112.66,112.66,0,0,1,18.1,9.91c6,5.13,10.82,11.32,15.33,17.71Z" style="fill:#fff"></path><path d="M572.14,359.05a28.31,28.31,0,0,1,7.76,3.07c2.41,1.42,4.86,2.91,6.55,5.22-5.17-2-10.2-4.47-14.31-8.29Z" style="fill:#fff"></path></g><polygon points="637.6 336.52 636.44 334.41 635.29 336.52 633.18 337.68 635.29 338.83 636.44 340.94 637.6 338.83 639.71 337.68 637.6 336.52" style="fill:#fff"></polygon><polygon points="556.54 413 555.38 410.89 554.23 413 552.12 414.16 554.23 415.31 555.38 417.42 556.54 415.31 558.65 414.16 556.54 413" style="fill:#fff"></polygon><polygon points="626.42 444.26 625.26 442.15 624.11 444.26 622 445.42 624.11 446.57 625.26 448.68 626.42 446.57 628.53 445.42 626.42 444.26" style="fill:#fff"></polygon><polygon points="640.44 349.53 639.71 348.19 638.98 349.53 637.64 350.26 638.98 350.99 639.71 352.33 640.44 350.99 641.78 350.26 640.44 349.53" style="fill:#fff"></polygon><polygon points="605.72 319.64 604.99 318.31 604.26 319.64 602.92 320.37 604.26 321.1 604.99 322.44 605.72 321.1 607.06 320.37 605.72 319.64" style="fill:#fff"></polygon><polygon points="552.39 339.29 551.23 337.18 550.08 339.29 547.97 340.44 550.08 341.6 551.23 346.08 552.39 341.6 554.5 340.44 552.39 339.29" style="fill:#fff"></polygon><path d="M590.58,118s7.21-7.77,13.94-4.91,6.54,9.84,10.54,11.89,13.33,3.77,16.51,9.26-1.05,13.15.22,16.27,8,5.72,7.58,12.34c-.45,7.69-6.4,10.41-7.36,14.14-1.58,6.21,1.26,12.6-4.52,18.56-6.22,6.42-13.16,3.95-18.53,4.93-5.15.94-8.64,8.74-18.69,6s-10.71-9.55-15.8-13.61-14.59-3.11-19.48-9.15-1.11-11.14-1.86-14.73-5.68-5.34-5.91-11.29,6.23-9.11,7.28-11.06c1.8-3.35-.13-6.13,2.39-10.91s10.1-6.19,11.87-7.32c4.26-2.7,3.71-11.49,9.76-13.24A11.77,11.77,0,0,1,590.58,118Z" style="fill:#263238"></path><path d="M632.78,139.36c-.14,2.32-.75,5.6-.2,7.84.62,2.65,2.93,4.17,4.74,6,4,3.73,6.06,9.8,3.41,14.92-1.22,2.5-3.28,4.38-5.13,6.21-1.41,1.37-2.58,2.86-2.41,4.85,0,5.78-.42,12.77-5.7,16.29,4.91-3.89,5.09-10.55,4.86-16.3-.25-2.17,1.18-4.1,2.6-5.48,1.87-1.89,3.79-3.69,4.88-6,2.54-4.83.59-10.25-3.07-14-1.29-1.47-3-2.74-3.93-4.53-1.68-3.06-.47-6.65-.05-9.87Z" style="fill:#263238"></path><path d="M559.65,187.23c-6.83-2.74-10.67-6.07-9.13-13.91.26-1.91.8-3.89-.63-5.42-1.74-2.4-3.95-5-4.2-8.18a10.7,10.7,0,0,1,3.31-8.47,49,49,0,0,1,4.78-3.76c-1.5,1.35-3.08,2.63-4.43,4.1a9.79,9.79,0,0,0-2,10.79c1,2.27,3,4.05,4.16,6.32.63,1.5.07,3.25-.1,4.75-1.61,7.69,2,10.46,8.23,13.78Z" style="fill:#263238"></path><path d="M580.8,203c-33.4,33.59-56.23,57.24-57.81,75.08-2.19,24.7,9.36,24.74,16.12,24.44,18.4-.82,43.78-58.44,53.84-87.53C602.73,186.74,588.13,195.61,580.8,203Z" style="fill:#ad6359"></path><path d="M647.86,296.3l-92.49-.87,6.29-32.33s-6.47-17.34-2.55-25.25c4.53-9.14,17.09-28.42,25.71-37,21-21,31.11-7.14,35.82-.81,10.4,14,19.1,75.6,19.1,75.6Z" style="fill:#ad6359"></path><path d="M582.33,239.9s-13-15.86-19.82-8.26c-10.3,11.54-.85,31.46-.85,31.46l-6.29,32.33,31.56,9.08,60.93-8.21a197.35,197.35,0,0,0-8.12-20.7,365.47,365.47,0,0,0-7.65-42s-17.26-1.5-25.25-2C600,231.2,589.79,232.7,582.33,239.9Z" style="fill:#455a64"></path><g style="opacity:0.5"><path d="M591.72,262.37a81,81,0,0,0-13.12.06c-2.18.21-4.33.54-6.49.92-1.08.19-2.16.33-3.24.48a13.29,13.29,0,0,1-3.39.1c-.1,0-.13.15,0,.17a21.11,21.11,0,0,0,3.17.49,21.55,21.55,0,0,0,3.11-.09c2.21-.2,4.41-.51,6.62-.74,4.45-.45,8.9-.9,13.36-1C591.91,262.76,591.93,262.38,591.72,262.37Z" style="fill:#fff"></path><path d="M601.57,268.4A86.79,86.79,0,0,0,591,266c-1.78-.29-3.56-.46-5.36-.59-.86-.06-1.72-.1-2.59-.13s-1.9.07-2.85,0c-.1,0-.13.17,0,.17.89.08,1.77.32,2.66.45l2.66.39c1.78.26,3.55.55,5.33.79,3.57.49,7.11,1,10.65,1.65C601.71,268.75,601.74,268.45,601.57,268.4Z" style="fill:#fff"></path></g><path d="M582.33,239.9s-6.26-14.16-11.51-18.65c-4.19-3.58-4.34-5-4.34-5s-18,14.43-19,21.37l10.32,9.08Z" style="fill:#455a64"></path><path d="M561.66,263.1c-2.9-6.74-5.66-14.39-4-21.83,2.37-7.15,6.49-13.54,10.77-19.66,2.57-3.52,6.23-8.58,8.85-12-2.29,3.61-5.78,8.82-8.21,12.42-4,6.13-8.1,12.53-10.53,19.47-1.66,7.21.8,14.76,3.12,21.59Z" style="fill:#fff;opacity:0.5"></path><polygon points="574.6 275.6 573.45 273.49 572.29 275.6 570.18 276.76 572.29 277.91 573.45 280.02 574.6 277.91 576.71 276.76 574.6 275.6" style="fill:#fff"></polygon><polygon points="566.54 226.88 565.39 224.77 564.23 226.88 562.12 228.04 564.23 229.19 565.39 231.3 566.54 229.19 568.65 228.04 566.54 226.88" style="fill:#fff"></polygon><polygon points="611.66 252.41 610.5 250.3 609.35 252.41 607.24 253.57 609.35 254.72 610.5 256.83 611.66 254.72 613.77 253.57 611.66 252.41" style="fill:#fff"></polygon><polygon points="577.44 288.61 576.71 287.27 575.98 288.61 574.65 289.34 575.98 290.07 576.71 291.41 577.44 290.07 578.78 289.34 577.44 288.61" style="fill:#fff"></polygon><path d="M618.84,222.89c6.15,11.19,24,34.92,24.08,39.13,0,.65-4,8-4,9.67.2,6.68,14.84,63.24,20.86,59.08,7.93-5.47,37.76-48.41,34.31-67.06s-69.1-71-79.36-70.25C614.76,193.46,613.75,213.63,618.84,222.89Z" style="fill:#ad6359"></path><path d="M631,241.83s11.57-17.58,27-19.67c0,0-8.86-11.72-18.17-14.45a181.27,181.27,0,0,0-42.46,17.06c-5.86,3.24-15,15.13-15,15.13Z" style="fill:#455a64"></path><path d="M619,224.36a353.74,353.74,0,0,1,22.69,33.82,14.07,14.07,0,0,1,1.58,3.63,1,1,0,0,1,0,.34c-.29.85-.63,1.78-1,2.6a54,54,0,0,1-3.08,6.07q1.38-3.1,2.55-6.28c.3-.82.59-1.74.83-2.59a14.49,14.49,0,0,0-1.59-3.36c-6.67-11.18-15-23.19-22-34.23Z" style="fill:#263238"></path><path d="M618.06,226a36.86,36.86,0,0,1,6.55,5.67,36.51,36.51,0,0,1-6.55-5.67Z" style="fill:#263238"></path><polygon points="614.5 230.14 613.77 228.81 613.04 230.14 611.7 230.87 613.04 231.6 613.77 232.94 614.5 231.6 615.83 230.87 614.5 230.14" style="fill:#fff"></polygon><polygon points="632.55 217.57 631.39 215.46 630.24 217.57 628.13 218.72 630.24 219.88 631.39 224.36 632.55 219.88 634.66 218.72 632.55 217.57" style="fill:#fff"></polygon><path d="M605,290.68c.69,6,7.38,1.77,7.38,1.77s-8.16,8.43-5.06,14.36c3,5.71,10.91.29,11.48-.09-.43.45-7.73,8.4-4,14,3.88,5.85,10.89-.94,11.34-1.38-.27.55-3.73,7.9.08,11.54,6.54,6.25,18.24-14,25.28-16,0,0,9.12,7.32,9.33,7.63,0,0-2.78-4.35-1.92-8.49,1.07-5.13,2.45-9.54,1.25-12.47a6.63,6.63,0,0,0-6.63-4.32s3.61-5.31.81-9.84c-1.44-2.32-6.44-2.08-6.44-2.08s2.72-4.37,0-8.24c-2.18-3.1-6.85-2.37-6.85-2.37s.66-5.41-2.59-7.85C631.93,262,603.59,277.81,605,290.68Z" style="fill:#ad6359"></path><path d="M640.31,274.77c.1,0,.06-.2,0-.17-10.59,2.94-21.33,9.4-28.23,18-.22.28.14.77.45.51C621.29,285.61,629.71,279.61,640.31,274.77Z" style="fill:#263238"></path><path d="M648.05,285.25c.12-.06,0-.25-.1-.21-10.89,3.08-22.79,10.7-29.57,21.59-.23.37-.06.94.24.53C623.67,300.26,638.49,289.56,648.05,285.25Z" style="fill:#263238"></path><path d="M626,320.29c6.9-10.2,16.38-17.15,27.14-22.89.14-.08,0-.27-.12-.24-6,1.38-12.5,5.75-17.25,9.58a32.36,32.36,0,0,0-10.13,13.31C625.53,320.26,625.82,320.51,626,320.29Z" style="fill:#263238"></path><path d="M640.91,274.73s0,.07.05.1,0,0,.06,0h0s.05,0,.09,0a6.94,6.94,0,0,1,6.77,2.71,5.91,5.91,0,0,1,1.15,3.1,13.9,13.9,0,0,1-1.1,4.7,8.05,8.05,0,0,1,6.94,4,6.2,6.2,0,0,1,.28,3.67,18.84,18.84,0,0,1-1.61,4.17c-.11.15,0,.29.12.27a6.26,6.26,0,0,1,5.74,3.24,10.6,10.6,0,0,1,.7,6.74c-.48,2.57-1.46,5-1.54,7.68a12.48,12.48,0,0,0,.31,3.22,9.91,9.91,0,0,0,1.18,2.86c.12.19.32.33.19.07a7.82,7.82,0,0,1-1.1-4.35,17.86,17.86,0,0,1,.89-4.1c.77-2.57,1.85-5.13,2-7.85a7.32,7.32,0,0,0-2.28-6.27,6.75,6.75,0,0,0-5.91-1.46,18.86,18.86,0,0,0,2.49-4.32,5.79,5.79,0,0,0,0-4.2c-1.35-3-4.66-4.06-7.73-3.89.53-.91,1.77-2.69,1.84-4.44a5.93,5.93,0,0,0-1.27-3.89c-2-2.4-5.06-2.64-7.92-2.09,0,0,0-.05,0-.09.91-2,.6-4.92-1.44-6C641.62,271,640.91,274.73,640.91,274.73Z" style="fill:#263238"></path><path d="M610.33,192.53c-.48,2-10.63,15.29-19.74,14.82-3-.15-2.3-12.49-2.3-12.49l-3.95-18L607,162.61S610.52,191.69,610.33,192.53Z" style="fill:#ad6359"></path><path d="M584.35,176.86,588.1,194a35.61,35.61,0,0,0,20.28-19.74c-.74-6.22-1.4-11.66-1.4-11.66Z" style="fill:#263238"></path><path d="M561.81,150.7c-4.48,29.87,12.9,35.93,19.34,36.89,5.85.87,25.87,3.1,33.42-26.15s-4.92-40.77-18.19-43.47S566.3,120.84,561.81,150.7Z" style="fill:#ad6359"></path><path d="M566.74,148.51a17.94,17.94,0,0,0,2.06-.3,3.35,3.35,0,0,0,2.05-.71,1.1,1.1,0,0,0,.08-1.31,2.67,2.67,0,0,0-2.59-.78,3.87,3.87,0,0,0-2.53,1.23A1.14,1.14,0,0,0,566.74,148.51Z" style="fill:#263238"></path><path d="M586.86,148.91a20,20,0,0,1-2-.56,3.35,3.35,0,0,1-1.94-1,1.08,1.08,0,0,1,.08-1.31,2.68,2.68,0,0,1,2.66-.46,3.9,3.9,0,0,1,2.37,1.54A1.15,1.15,0,0,1,586.86,148.91Z" style="fill:#263238"></path><path d="M582.06,154.43c0-.08.15.11.14.19-.24,2-.17,4.43,1.62,5.26.06,0,0,.13,0,.12C581.56,159.48,581.5,156.32,582.06,154.43Z" style="fill:#263238"></path><path d="M584.07,152.44c3.32,0,3,6.67-.06,6.64S581.29,152.42,584.07,152.44Z" style="fill:#263238"></path><path d="M585.36,152.86c.56.4,1.1,1.09,1.79,1.19s1.45-.55,2-1.19c.05-.07.11,0,.11.08,0,1.27-.59,2.55-2,2.68s-2.08-1.06-2.34-2.35C584.91,153,585.13,152.69,585.36,152.86Z" style="fill:#263238"></path><path d="M570.76,153c0-.07-.17.09-.17.18,0,2.06-.38,4.41-2.26,5-.06,0-.06.12,0,.12C570.62,158.12,571.07,155,570.76,153Z" style="fill:#263238"></path><path d="M569,150.83c-3.29-.38-3.81,6.23-.76,6.59S571.77,151.14,569,150.83Z" style="fill:#263238"></path><path d="M567.59,151.15c-.55.31-1.12.91-1.75.9s-1.2-.76-1.61-1.49c0-.07-.1,0-.11.07-.13,1.26.18,2.61,1.38,3s2-.72,2.39-2C568,151.4,567.81,151,567.59,151.15Z" style="fill:#263238"></path><path d="M580.69,172c-.49.48-1,1.14-1.73,1.2a5.38,5.38,0,0,1-2.21-.52c-.06,0-.13.05-.09.11a2.79,2.79,0,0,0,2.61,1.12,2.2,2.2,0,0,0,1.62-1.82C580.92,172,580.76,171.94,580.69,172Z" style="fill:#263238"></path><path d="M572.54,164.09s-.6,3-.68,4.48c0,.14.34.22.82.28,0,0,0,0,.06,0a6.91,6.91,0,0,0,6.83-2.18.15.15,0,0,0-.2-.21A10.48,10.48,0,0,1,573,167.9c-.08-.41,1.21-5.18,1-5.21a13.14,13.14,0,0,0-3.33.55c1.08-6.37,3.16-12.52,4.13-18.88a.2.2,0,0,0-.37-.11c-2.64,6.29-4,13.59-5.31,20.14C568.91,165.21,572,164.3,572.54,164.09Z" style="fill:#263238"></path><path d="M615.72,160.75c-3.44.13-11.47.38-16.36-4-2.7-2.39-5-6.39-6.23-13.45C591,131,582.29,122.69,569,129.4c0,0-1.7-11.44,6.13-15.67s15.34,3.62,15.34,3.62,17-1.12,25.64,12S615.72,160.75,615.72,160.75Z" style="fill:#263238"></path><path d="M576.81,127.06c3.06-.52,6.67.8,8,3.77.86,1.65.12,3.84.56,5.46a2.51,2.51,0,0,0,2.25,1.85c1.67.22,4.63,1.39,3.69,3.69a1.92,1.92,0,0,1-1.43,1.35c-1.21.26-2.82-.42-2.94-1.74a2.24,2.24,0,0,0,2.83,1.36,1.7,1.7,0,0,0,.76-2.57,2.92,2.92,0,0,0-1.37-.8c-1.18-.43-2.52-.29-3.6-1.11a3.26,3.26,0,0,1-1.15-1.78,14.13,14.13,0,0,1-.11-3.76c-.07-3.69-4.18-5.75-7.51-5.72Z" style="fill:#263238"></path><path d="M608.2,160.54s6.64-9.4,10.9-7-.76,16-5.79,17.85a5.1,5.1,0,0,1-6.83-2.78Z" style="fill:#ad6359"></path><path d="M617.56,157.39c.08,0,.1.11,0,.14-3.53,1.4-5.4,4.66-6.72,8,1.06-1.3,2.49-2,4.23-.75.09.07,0,.21-.1.19a3.13,3.13,0,0,0-3.46,1.08,14.75,14.75,0,0,0-1.67,2.78c-.17.32-.74.15-.62-.22l0-.08C609.22,164.08,612.74,157.82,617.56,157.39Z" style="fill:#263238"></path><path d="M609.92,170.28a1.8,1.8,0,1,0,1.8-1.79A1.8,1.8,0,0,0,609.92,170.28Z" style="fill:#FFC727"></path><rect x="611.31" y="169.85" width="0.79" height="7.59" transform="translate(1222.75 349.6) rotate(-179.78)" style="fill:#FFC727"></rect><path d="M605.64,176.15a6.06,6.06,0,0,0,12.12,0Z" style="fill:#FFC727"></path><path d="M548.4,296.74c8.21-8.93-3.5-41.25-17.46-76-2.48-6.17-43.32,2.81-43,9.92.44,9,14.92,38.08,22.39,52.11C520.55,301.88,538.81,307.17,548.4,296.74Z" style="fill:#ad6359"></path><path d="M550.52,276.61c-3.44-9.83-6.61-20.67-9.9-30.56,5.29,9.38,8.36,19.94,9.9,30.56Z" style="fill:#263238"></path><path d="M512.26,253.6c5.12.79,21.91-20.8,20.42-25.9-1-3.55-5.8-23-5.48-33.51.26-8.79,1.65-21.82-3.07-22.13-6.89-.48-10.62,15.77-12.2,25.23a64.51,64.51,0,0,0-13.35-7.7c-8.47-3.84-20.48,38.79-14.55,46.16C489.75,242.86,507.14,252.81,512.26,253.6Z" style="fill:#ad6359"></path><path d="M489.77,222.94c2.49,1.87,5.75,2,8.74,2.15,10,.24,18.23-1.78,26.58,5.54A26.77,26.77,0,0,0,507.75,226a80,80,0,0,1-9.29-.07c-3-.35-6.46-.71-8.69-3Z" style="fill:#263238"></path><rect x="493.12" y="151.53" width="0.78" height="36.25" transform="translate(993 18.52) rotate(144.19)" style="fill:#FFC727"></rect><rect x="493.12" y="151.53" width="0.78" height="36.25" transform="translate(993 18.52) rotate(144.19)" style="opacity:0.5"></rect><path d="M495.51,178.67a3.68,3.68,0,1,0,.52-5.52A3.93,3.93,0,0,0,495.51,178.67Z" style="fill:#FFC727"></path><rect x="489.48" y="152.71" width="0.78" height="23.81" transform="translate(983.46 11.52) rotate(144.19)" style="fill:#FFC727"></rect><rect x="489.48" y="152.71" width="0.78" height="23.81" transform="translate(983.46 11.52) rotate(144.19)" style="opacity:0.5"></rect><g style="opacity:0.6000000000000001"><g style="opacity:0.5"><path d="M488.35,226.2l35.63.06s-.77-1.51-1.72-1.84-4.64-.3-8.26-1.25-6.05-4.24-6.18-5.53c-.09-.95.81-24.32,2-25.8,2.31-2.87,26.65-28.11,26.65-28.11L476,163.64s24.27,25.31,26.57,28.19c1.19,1.48,2,24.86,1.92,25.8-.14,1.29-2.57,4.57-6.19,5.52s-7.32.9-8.27,1.23S488.35,226.2,488.35,226.2Z" style="fill:#ebebeb"></path><path d="M488.35,226.2l35.63-.07-.12.18a3.62,3.62,0,0,0-1.71-1.78c-2.56-.43-5.25-.45-7.8-1.13a10,10,0,0,1-6.27-4.64,4.45,4.45,0,0,1-.4-2.63c.24-7,.52-14,1.27-21a12.42,12.42,0,0,1,.67-3.29c.41-.55.86-1,1.31-1.51,2.28-2.51,8.41-9,10.81-11.52l14.56-15.21.17.39c0-.13-61.31.34-60.29-.45l14.51,15.26,7.21,7.67,3.57,3.87c.54.68,1.37,1.28,1.54,2.18,1.27,7.8,1.28,15.76,1.59,23.64a4.44,4.44,0,0,1-.41,2.59c-2.25,4.12-7.13,5.06-11.44,5.33a23,23,0,0,0-2.61.32,3.75,3.75,0,0,0-1.79,1.83Zm0,0a3.75,3.75,0,0,1,1.79-1.85,20.92,20.92,0,0,1,2.61-.33c4.27-.31,9.12-1.26,11.33-5.37a4.34,4.34,0,0,0,.36-2.52c-.25-7-.55-14-1.29-21-.23-1.23-.1-2.7-1-3.65-.62-.74-3.75-4.07-4.44-4.84L490.46,179,475.9,163.77l-.3-.32H476l60.43.05H537l-.38.39L522,179.07c-2.92,3.11-8.95,9.33-11.71,12.46-.91.93-.78,2.39-1,3.62-.77,7-1.07,14-1.32,21l0,1.31a5.86,5.86,0,0,0,2,3.2c3.22,3.28,8.09,2.9,12.29,3.63a4.06,4.06,0,0,1,2,2.1c-.17,0-35.65-.18-35.84-.18Z" style="fill:#263238"></path></g><path d="M479.53,163.83c3.48,3.71,20.11,21.49,22,23.39,2.15,2.16,3.72,2.78,4.68,2.78s2.52-.61,4.68-2.77c1.9-1.89,18.64-19.62,22.13-23.32Z" style="fill:#c7c7c7;opacity:0.6000000000000001"></path><path d="M488.66,173.59c5.35,5.7,11.67,12.42,12.88,13.63,2.15,2.16,3.72,2.78,4.68,2.78s2.52-.61,4.68-2.77c1.21-1.2,7.55-7.9,12.92-13.59Z" style="fill:#FFC727"></path></g><rect x="507.42" y="184.86" width="5.27" height="1" transform="translate(26.2 431.12) rotate(-46.9)" style="fill:#fff"></rect><rect x="510.09" y="172.01" width="23.97" height="1" transform="translate(39.38 435.82) rotate(-46.9)" style="fill:#fff"></rect><rect x="494.98" y="204.08" width="23.88" height="1" transform="translate(280.76 702.25) rotate(-87.54)" style="fill:#fff"></rect><path d="M491.28,241.69c-3.45-.91-12.66-6.44-16.31-9.2s-12.3-8.82-10.8-13.83,6.65-1.91,13.47.68a40,40,0,0,0,12.07,2.14l-3,10.08Z" style="fill:#ad6359"></path><path d="M491.25,225.58s8,4.32,11.72.79-2-8.17-2.44-8.51c.42.22,7.84,4,11.25.07,3.55-4.1-2.95-7.9-3.37-8.14.46.09,6.65,1.13,8.56-2.45,3.29-6.15-12.44-9.27-15.39-14.09a13.66,13.66,0,0,1,.68-1.83s-11.07-6.87-15.12-3.36a4.49,4.49,0,0,0-.8,5.93s-4.69-1.58-7.48,1.43c-1.42,1.56-.21,5.22-.21,5.22s-3.34-.65-5.23,1.48-.87,6,.44,8.14C479.36,219.33,491.25,225.58,491.25,225.58Z" style="fill:#ad6359"></path><path d="M473.15,209.21c0-.06-.15,0-.1.07,4.19,7,10.92,13.33,18.44,16.54.25.11.52-.25.27-.42A85.33,85.33,0,0,1,473.15,209.21Z" style="fill:#263238"></path><path d="M478.52,200.59c-.06-.08-.18,0-.13.11,4.54,7.47,12.67,14.73,22.16,17.52.33.09.72-.15.35-.29C494.72,215.6,483.71,206.8,478.52,200.59Z" style="fill:#263238"></path><path d="M509.14,209.75c-9-3-16.14-8.62-22.63-15.43-.09-.09-.2,0-.15.13,2.27,4.2,6.86,8.11,10.69,10.85a25.09,25.09,0,0,0,12,4.77C509.2,210.09,509.33,209.82,509.14,209.75Z" style="fill:#263238"></path><path d="M491.28,225.74c.31.13.16-.47.48-.35,1.31.51,9.5,2.91,11.19.37,1.34-2-.47-5.25-1.64-6.22l-3-2.42,3.63,1.24a15.53,15.53,0,0,0,5,.9,5.67,5.67,0,0,0,4.31-1.57,3.22,3.22,0,0,0,.43-4,9.6,9.6,0,0,0-3.63-3.21l-4-2.2,4.45.77a14.69,14.69,0,0,0,3.75.18,6,6,0,0,0,3.3-1.16,2.87,2.87,0,0,0,1-2.86,6.4,6.4,0,0,0-2.14-2.85,50.69,50.69,0,0,0-6.57-4.32c-1.14-.68-2.29-1.36-3.4-2.1a9.55,9.55,0,0,1-2.94-2.68,10.25,10.25,0,0,0,3.13,2.37c1.16.64,2.34,1.23,3.53,1.82a42.41,42.41,0,0,1,7,4.06,7.51,7.51,0,0,1,2.67,3.34,4.09,4.09,0,0,1-1.35,4.28,7.4,7.4,0,0,1-4.06,1.54,15.83,15.83,0,0,1-4.18-.13l.48-1.42a11.13,11.13,0,0,1,4.32,3.76,4.66,4.66,0,0,1,.7,3.06,5.34,5.34,0,0,1-1.37,2.79,7.07,7.07,0,0,1-5.44,2,17,17,0,0,1-5.48-1.07l.66-1.18c1.46,1.28,3.87,4.66,2.18,8.08C501.46,230.67,492.81,226.59,491.28,225.74Z" style="fill:#263238"></path></g><g id="freepik--character-1--inject-144"><path d="M173,457.62H84.34l-.43-24c-2.83-10.93-4.12-34.86-3-43.07A225.56,225.56,0,0,1,96.38,335l2.21,0,68.82-.68S170.48,395.41,173,457.62Z" style="fill:#263238"></path><path d="M164.47,457.62h-1.73q-.13-7.28-.3-14.56-.16-7.46-.37-14.9c0-.16,0-.32,0-.48-.64-23.6-1.51-47.18-2.45-70.77,0-.32.49-.31.51,0C162.22,390.45,163.61,424,164.47,457.62Z" style="fill:#37474f"></path><path d="M252.4,457.62H150.8c-6-15.8-10.67-27.81-12-31.13-.07-.18-.13-.33-.17-.45l-.19-.48c-2-1.08-4.25-2.24-6.49-3.34-5.05-2.49-9.82-4.64-9.82-4.64C100,383.05,98.59,335,98.59,335l68.82-.68L205,334c7.26,27.24,21.1,53.9,31.4,81.09C241.85,429.57,247.27,443.88,252.4,457.62Z" style="fill:#263238"></path><path d="M212.29,457.62h-2.43c-5.41-12.24-10.72-24.52-15.53-37-9.38-24.34-17-50.26-16.28-76.59a.2.2,0,1,1,.4,0c.19,3.24.47,6.48.76,9.72,2.35,26.56,11.31,52.32,21.45,76.79C204.41,439.61,208.33,448.62,212.29,457.62Z" style="fill:#37474f"></path><path d="M162.91,427.69a87.89,87.89,0,0,1-14.67-1.18,145.5,145.5,0,0,1-14.23-3.8c-4.52-1.28-9.31-1.44-13.94-2.14a48.29,48.29,0,0,1-13.69-3.93c-.2-.09-.37.21-.16.31a84.53,84.53,0,0,0,13.13,5.54c4.69,1.43,9.58,1.59,14.34,2.7s9.62,2.69,14.64,3.22A52.72,52.72,0,0,0,163,428C163.15,428,163.09,427.69,162.91,427.69Z" style="fill:#37474f"></path><path d="M152.15,457.62h-2.73c-1.57-4.33-3.11-8.67-4.59-13-2.06-6-4.32-12-6-18.13a3.17,3.17,0,0,1-.12-.44c-.09-.31-.18-.61-.26-.92s.26-.26.34-.09c.26.54.52,1.08.77,1.63,3.07,6.53,5.53,13.24,8.24,19.87Q150,452.07,152.15,457.62Z" style="fill:#37474f"></path><path d="M321.22,247a15.18,15.18,0,1,0-21.86-21.07l.86.83,9.54,9.2,0,0,.45.44h0l.05,0h0l0,0h0l.72.69,9.28,9Z" style="fill:#FFC727"></path><path d="M320.36,246.12a13.84,13.84,0,0,0,3.07-4.85,14,14,0,0,0-23.21-14.56l9.54,9.2,0,0,.45.44h0l.05,0h0l0,0h0l.72.69Z" style="fill:#fff;opacity:0.5"></path><path d="M310.24,236.37h.11l-.56-.44Z" style="fill:#FFC727"></path><path d="M302.55,227.52c.48.83,7.8,8.85,7.8,8.85s-1.19-10.83-1.49-11.73-2.29-.77-3.84-.06S302.08,226.7,302.55,227.52Z" style="fill:#FFC727;opacity:0.5"></path><path d="M311.09,224.56c-.25.92-.74,11.81-.74,11.81s6.79-8.52,7.21-9.38-1.07-2.16-2.66-2.76S311.34,223.64,311.09,224.56Z" style="fill:#FFC727;opacity:0.5"></path><path d="M319.19,228.52c-.82.48-8.84,7.85-8.84,7.85s10.79-1.22,11.69-1.53.77-2.3.07-3.85S320,228,319.19,228.52Z" style="fill:#FFC727;opacity:0.5"></path><path d="M322.11,237.08c-.92-.24-11.76-.71-11.76-.71s8.47,6.8,9.32,7.22,2.16-1.09,2.76-2.69S323,237.32,322.11,237.08Z" style="fill:#FFC727;opacity:0.5"></path><path d="M311.08,237.17l-.73-.79h0s0,.05,0,.1Z" style="fill:#FFC727"></path><path d="M310.34,236.47a.55.55,0,0,1,0-.09h0l0,.05Z" style="fill:#FFC727"></path><path d="M310.3,236.42l0,0h-.09Z" style="fill:#FFC727"></path><path d="M313.25,237.88c.11-.23,2,0,1.59.77S313.14,238.1,313.25,237.88Z" style="fill:#fff;opacity:0.5"></path><path d="M317.13,238c0-.25,1.81-.75,1.77.1S317.12,238.22,317.13,238Z" style="fill:#fff;opacity:0.5"></path><path d="M312,233c-.23-.11,0-2,.77-1.59S312.22,233.15,312,233Z" style="fill:#fff;opacity:0.5"></path><path d="M308.31,231.16c-.21.14-1.66-1-.95-1.49S308.52,231,308.31,231.16Z" style="fill:#fff;opacity:0.5"></path><path d="M316.56,233.4c-.13-.22,1.09-1.63,1.52-.9S316.68,233.61,316.56,233.4Z" style="fill:#fff;opacity:0.5"></path><g style="opacity:0.6000000000000001"><polygon points="315.82 232.07 309.39 278.88 276.69 278.88 270.25 232.07 315.82 232.07" style="fill:#ebebeb"></polygon><path d="M315.82,232.07c0,.16-6.26,46.84-6.28,47s-32.75,0-32.85.06h-.21l0-.2-6.37-46.81,0-.2h.2l45.57.17Zm0,0s-46.32.4-45.4,0c-.1-.06,6.93,47.72,6.27,46.59-.11,0,33.45-.11,32.53.21l6.6-46.78Z" style="fill:#263238"></path></g><polygon points="312.44 232.21 306.64 275.5 279.43 275.5 273.61 232.07 312.44 232.21" style="fill:#c7c7c7;opacity:0.6000000000000001"></polygon><polygon points="309.65 253.01 306.64 275.5 279.43 275.5 276.42 253.01 309.65 253.01" style="fill:#FFC727;opacity:0.6000000000000001"></polygon><rect x="281.02" y="261.19" width="1" height="8" transform="translate(-30.67 36.9) rotate(-7.11)" style="fill:#fff"></rect><rect x="278.61" y="231.97" width="1" height="27.81" transform="translate(-28.3 36.46) rotate(-7.11)" style="fill:#fff"></rect><path d="M133.86,197.53C107.36,213.83,62,260.61,64.39,274c4.48,24.63,65,48.14,77,53.7,5.11,2.37,18.52-43.19,13.1-45.84-4.71-2.31-38.39-11.61-38.73-16.1-.14-1.85,15.55-25.07,28.24-52.51C153.67,192.17,141.71,192.7,133.86,197.53Z" style="fill:#d3766a"></path><path d="M144.21,278.21s5.07,2.27,18.5,3.94c10.5,1.31,34.25,11.7,42.27,40.33,3.07,11-3.28,17.91-8.5,7.09-3.67-7.63-5.56-13.23-7.46-15.38,0,0-2.86,12.63-9.8,15.52A139.49,139.49,0,0,1,160.57,336a28.12,28.12,0,0,1-1.48-3.39,15.76,15.76,0,0,1-16.27-4.26l-10.65-4.53Z" style="fill:#d3766a"></path><path d="M171.36,286.11c3.79,4.05,11.68,12.75,15.66,22.12,4.42,10.41,10.14,31.64,2.42,34.82-5.66,2.34-8.55-5.58-8.55-5.58s.51,9.28-5.06,10.27c-5.08.9-7-5.35-7-5.35s-.66,5.67-5.71,5.6c-6.09-.08-3.71-12-9.8-17.38C152,329.39,171.36,286.11,171.36,286.11Z" style="fill:#d3766a"></path><path d="M175.25,311.07c2.94,4.39,7.07,16.07,5.79,26.22,0,.23-.22.33-.24.11a111,111,0,0,0-5.65-26.29C175.13,311.05,175.22,311,175.25,311.07Z" style="fill:#263238"></path><path d="M164.88,315.84c2.15,4,5.86,16.27,4.21,26.52,0,.22-.24.31-.24.1a119.51,119.51,0,0,0-4.07-26.59C164.76,315.81,164.85,315.78,164.88,315.84Z" style="fill:#263238"></path><path d="M144.21,278.21l-13.93,49.53s-67.73-31.67-66.85-56c.57-15.94,44.77-58.36,65-71.87S154,191.63,145,214.46s-27.81,51-27.72,51.59S144.21,278.21,144.21,278.21Z" style="fill:#FFC727"></path><path d="M140.65,276.67l-18.9,53s-59.2-33.61-58.32-58c.57-15.94,44.77-58.36,65-71.87S154,191.63,145,214.46s-27.81,51-27.72,51.59S140.65,276.67,140.65,276.67Z" style="fill:#37474f"></path><path d="M145,214.46c-9,22.79-27.71,50.91-27.71,51.58s23.41,10.62,23.41,10.62l-18.92,53s-28-15.87-45.15-33.7L143.35,192.6C150.58,191.57,151.08,199,145,214.46Z" style="fill:#263238"></path><path d="M170.6,217.19c-7.13.93-19.43-12-23.26-21.1-.26-.63,1.29-6.77,2.82-14.32.92-4.59,1.82-9.71,2.31-14.45l29,10.29s-3.94,9.63-4.75,17.89a10.76,10.76,0,0,0,0,2c0,.09,0,.2,0,.33C176.93,201.55,177.5,216.29,170.6,217.19Z" style="fill:#d3766a"></path><path d="M176.7,197.47c0,.08,0,.21,0,.33a18.38,18.38,0,0,1-3.08-.15c-17.43-2.51-20-22.57-20.31-30l28.13,10s-3.95,9.64-4.76,17.89A11.73,11.73,0,0,0,176.7,197.47Z" style="fill:#263238"></path><path d="M147.36,132.62c-3.38,10.55,1.77,41.23,9.21,48.16,10.78,10,28.65,11.25,37.24-1.76,8.33-12.61.9-52.47-7.43-58.79C174.12,110.92,152.36,117,147.36,132.62Z" style="fill:#d3766a"></path><path d="M179,151.76c0-.08-.15.12-.13.2.31,2.07.33,4.5-1.47,5.42-.05,0,0,.13,0,.12C179.73,156.89,179.68,153.67,179,151.76Z" style="fill:#263238"></path><path d="M176.92,149.81c-3.38.16-2.82,6.9.31,6.76S179.75,149.69,176.92,149.81Z" style="fill:#263238"></path><path d="M190.46,150.41c0-.08.17.09.18.17.1,2.1.58,4.48,2.52,5,.06,0,.07.13,0,.12C190.82,155.58,190.23,152.41,190.46,150.41Z" style="fill:#263238"></path><path d="M192.15,148.08c3.33-.54,4.15,6.18,1.06,6.67S189.35,148.52,192.15,148.08Z" style="fill:#263238"></path><path d="M174,147c.89-.31,1.67-.74,2.53-1.13a4.56,4.56,0,0,0,2.37-1.65,1.43,1.43,0,0,0-.38-1.71,3.54,3.54,0,0,0-3.59-.07,5.24,5.24,0,0,0-2.81,2.49A1.53,1.53,0,0,0,174,147Z" style="fill:#263238"></path><path d="M193.71,144.65a25.29,25.29,0,0,1-2.74-.47,4.43,4.43,0,0,1-2.69-1,1.43,1.43,0,0,1-.07-1.74,3.55,3.55,0,0,1,3.47-1,5.17,5.17,0,0,1,3.33,1.73A1.52,1.52,0,0,1,193.71,144.65Z" style="fill:#263238"></path><path d="M178.16,170.71c.55.43,1.12,1,1.89,1a5.59,5.59,0,0,0,2.18-.77.07.07,0,0,1,.1.1,2.85,2.85,0,0,1-2.52,1.42,2.24,2.24,0,0,1-1.84-1.67C177.92,170.71,178.08,170.64,178.16,170.71Z" style="fill:#263238"></path><path d="M180.06,164.41a7.19,7.19,0,0,0,5.18,2.44,8.79,8.79,0,0,0,2.55-.27,2.25,2.25,0,0,0,.48-.12l.45-.14a.52.52,0,0,0,.34-.53h0a.72.72,0,0,0-.05-.21v0l0-.18c-.19-1.6-.7-4-.7-4,.62.2,3.79,1.1,3.62.27-1.44-6.84-3-14.45-5.91-20.95a.19.19,0,0,0-.37.11c1.12,6.63,3.4,13,4.63,19.66a12.45,12.45,0,0,0-3.48-.52c-.21.1,1.08,4.63,1.11,5.35a.19.19,0,0,1,0,.08c-2.63.74-4.77.23-7.64-1.18C180.06,164.1,179.91,164.26,180.06,164.41Z" style="fill:#263238"></path><path d="M187.2,161.17s-2.13-1.14-3.36-1-3.49,2.27-4.23,2.12-1.5-1.69-1.5-1.69-.12,2.12,2.64,3.15,6.6-1.8,6.6-1.8,2.85,1.72,4.75,1.52,2.57-2.62,2.57-2.62A9.74,9.74,0,0,1,193.3,162c-.43.23-2.44-1.45-3.74-1.6A3.4,3.4,0,0,0,187.2,161.17Z" style="fill:#263238"></path><path d="M149.46,165.69c3.86-1,12-3.84,12.62-8.76s-3.62-18.79-2.85-22.66c1-4.79,7.47-9.81,10-9.93,3.33-.16,10.69,6,14,5.53,2.35-.31,2.17-3.24,2.17-3.89,0-1.32-.75-3.09,0-3.31s5.12,3.83,6.87,7.78c0,0-1.1-9-7.7-12.23-7.29-3.53-24.43-6.42-35.61,8.43C138.93,140,149.46,165.69,149.46,165.69Z" style="fill:#263238"></path><path d="M157.77,157.65s-7-9.85-11.45-7.36.81,16.81,6.09,18.74a5.37,5.37,0,0,0,7.17-2.92Z" style="fill:#d3766a"></path><path d="M147.93,154.36c-.08,0-.1.11,0,.14,3.7,1.47,5.67,4.89,7.05,8.44-1.11-1.37-2.61-2.11-4.43-.79-.1.07,0,.22.1.2a3.3,3.3,0,0,1,3.64,1.13A16.25,16.25,0,0,1,156,166.4c.18.33.77.15.64-.23l0-.08C156.7,161.38,153,154.8,147.93,154.36Z" style="fill:#263238"></path><path d="M200.08,363.57c.62,5.72-5.41,94.05-5.41,94.05H71.77c4.87-39,11.54-83.48,13-91.95.28-1.69,7.86-27.61,15.74-60,4.75-19.65,8.17-84.44,44.75-113.13,6.46-5.06,25.89,1.25,32.43,7.62C204.18,226,198.15,345.7,200.08,363.57Z" style="fill:#37474f"></path><path d="M130.49,247.32c.29-6.42.77-12.83,2.56-19.07,0-.12-.17-.17-.21-.05a73.34,73.34,0,0,0-4.09,16.3,139.22,139.22,0,0,0-.79,17.08c0,5.72.1,11.43-.15,17.15A170.93,170.93,0,0,1,126,296.36a115.83,115.83,0,0,1-4.08,19.28c0,.17.24.24.29.07,1.75-5.63,3.7-11.16,5-16.91a122.94,122.94,0,0,0,2.47-17.16C130.51,270.23,130,258.76,130.49,247.32Z" style="fill:#263238"></path><polygon points="146.95 192.93 148.56 184.16 177.57 195.36 177.65 200.55 146.95 192.93" style="fill:#FFC727"></polygon><polygon points="145.22 192.54 146.95 185.34 178.09 196.31 178.48 200.75 145.22 192.54" style="fill:#37474f"></polygon><path d="M166.59,222.66c-7.62,46.82-4.21,113.48,10.5,120.7,16.38,8,27.34-55.78,25.59-57.94-1.32-1.62-10-32.35-18.06-65.11S168.48,211.09,166.59,222.66Z" style="fill:#d3766a"></path><path d="M203,285.29c-1.52-4.59-13.35-49.93-18.58-68.28s-13.26-19.48-18.51,4.45-9.61,75.18-.1,104.25c9.17,28,21.82,22.37,29.9.72C202.3,308.71,203,285.29,203,285.29Z" style="fill:#37474f"></path><path d="M204.91,292.92c-1.6-5.48-3.11-11-4.61-16.49s-2.93-11-4.4-16.55l-4.21-16.6-2-8.31c-.65-2.78-1.33-5.55-2-8.34.81,2.74,1.56,5.49,2.35,8.23l2.26,8.26,4.4,16.55c1.4,5.53,2.84,11.06,4.21,16.6S203.64,287.36,204.91,292.92Z" style="fill:#263238"></path><path d="M191.25,239.4a31,31,0,0,1-.44-4.49c0-.75,0-1.5,0-2.25s.05-1.5.08-2.25a20,20,0,0,1,.58,4.48A26.24,26.24,0,0,1,191.25,239.4Z" style="fill:#263238"></path><path d="M176.79,343.88c12.85,4.4,29.64-4.69,78.39-27.49,6.75-3.16-1.92-58.4-9.3-55.4-9.29,3.77-44.53,20.45-46.95,22C178.49,296,168.08,340.9,176.79,343.88Z" style="fill:#d3766a"></path><path d="M218.29,282s5.19-4.07,14.41-17.26c7.2-10.31,31.3-29.52,65.85-22.07,13.24,2.85,17,13.38,2.74,12.86-10.06-.37-17-1.49-20.31-.69,0,0,11.69,10,10.88,18.92a164.21,164.21,0,0,1-3.79,23.07,33,33,0,0,1-4.38-.32,18.76,18.76,0,0,1-13.5,14.75l-18.07,6.59Z" style="fill:#d3766a"></path><path d="M241.66,257.82c6.36-1.75,19.89-5.22,32-4.21,13.39,1.13,38.88,6.9,37.95,16.78-.68,7.25-10.61,5.9-10.61,5.9s10,4.6,8,11c-1.87,5.84-9.49,4.34-9.49,4.34s5.61,3.84,2.73,9.12c-3.47,6.35-14.65-2.75-23.71.65C276.43,302.17,241.66,257.82,241.66,257.82Z" style="fill:#d3766a"></path><path d="M270.06,267.57c6.24-.66,20.81,1.48,30.78,8.46.22.16.23.41,0,.31a132.54,132.54,0,0,0-30.78-8.65A.06.06,0,0,1,270.06,267.57Z" style="fill:#263238"></path><path d="M269.32,281.12c5.44,0,20.36,2.86,30.22,10.28.22.17.2.43,0,.32a141,141,0,0,0-30.21-10.47C269.22,281.23,269.25,281.12,269.32,281.12Z" style="fill:#263238"></path><path d="M231.07,265.84l8.2,61.22S189,349.89,176.34,344.27c-8.32-3.7.87-49.85,24.55-62.53Z" style="fill:#FFC727"></path><path d="M225.45,266.9l8,65.94S189,349.89,176.34,344.27c-8.32-3.7.87-49.85,24.55-62.53Z" style="fill:#37474f"></path><path d="M180.21,307.23c1.64-5,7.11-18,20.68-25.55.12-.06.26.11.14.19-9.57,6.59-18.64,20.73-20.62,25.45C180.36,307.45,180.17,307.35,180.21,307.23Z" style="fill:#263238"></path><path d="M217.93,334.1c-1.21-7.1-2-14.24-2.85-21.39s-1.64-14.3-2.27-21.46c-.36-4.05-.74-8.1-.95-12.15,0-.11.17-.13.19,0,1.21,7.08,2.07,14.23,2.92,21.36s1.64,14.31,2.36,21.47c.41,4,.74,8.09,1,12.15C218.3,334.26,218,334.31,217.93,334.1Z" style="fill:#263238"></path><path d="M225.68,266.36c-2.83.91-15.74,7.48-30.24,18.94-.09.07-1.88,3.16-1.79,3.09,11.66-9.42,29.28-19.32,31.84-20.93a4.1,4.1,0,0,0,.1.69c0,.16.27.23.34.05.15-.43.18-.85.3-1.28A.43.43,0,0,0,225.68,266.36Z" style="fill:#263238"></path><path d="M232.91,328.23l.67,4.6,0,.09-.09,0c-13,5.29-26.42,9.89-40.36,12.15-5.27.72-10.9,1.3-16.07-.57-8.21-3.7-11.41-14.56-13.59-22.54-3.27-13.76-4.33-27.9-4.53-42a255.73,255.73,0,0,1,2.75-42,320.07,320.07,0,0,0-1.24,42c.56,14,1.57,28,4.94,41.53,2.09,7.48,4.84,17.79,12.34,21.37,4.79,1.77,10.13,1.17,15.18.64,13.83-1.91,27.32-6.18,40.49-10.78l-.07.13-.44-4.63Z" style="fill:#263238"></path><path d="M160.07,239.3a15.88,15.88,0,0,0,.65,7.27,10.17,10.17,0,0,1-.65-7.27Z" style="fill:#263238"></path></g><g id="freepik--Table--inject-144"><path d="M58.88,458.07c202.53-.61,429.71-.62,632.24,0-202.53.62-429.71.61-632.24,0Z" style="fill:#263238"></path></g></svg>
