<svg xmlns="http://www.w3.org/2000/svg" viewBox="0 0 400 300">
  <defs>
    <linearGradient id="charityBg" x1="0%" y1="0%" x2="100%" y2="100%">
      <stop offset="0%" style="stop-color:#CCFBF1;stop-opacity:1" />
      <stop offset="100%" style="stop-color:#99F6E4;stop-opacity:1" />
    </linearGradient>
  </defs>
  <rect width="400" height="300" fill="url(#charityBg)"/>

  <!-- Heart shape -->
  <path d="M200,180 C200,180 140,130 140,100 C140,80 155,70 170,70 C180,70 190,75 200,85 C210,75 220,70 230,70 C245,70 260,80 260,100 C260,130 200,180 200,180 Z" fill="#0D9488" opacity="0.8"/>

  <!-- Hands holding heart -->
  <path d="M160,180 Q150,190 145,200 L155,205 Q160,195 165,190" fill="#14B8A6" opacity="0.6"/>
  <path d="M240,180 Q250,190 255,200 L245,205 Q240,195 235,190" fill="#14B8A6" opacity="0.6"/>

  <!-- Sparkles -->
  <circle cx="150" cy="110" r="4" fill="#0D9488" opacity="0.4"/>
  <circle cx="250" cy="105" r="3" fill="#0D9488" opacity="0.4"/>
  <circle cx="180" cy="80" r="5" fill="#14B8A6" opacity="0.3"/>
  <circle cx="220" cy="85" r="4" fill="#14B8A6" opacity="0.3"/>

  <text x="200" y="250" font-family="Arial, sans-serif" font-size="24" font-weight="bold" fill="#0F766E" text-anchor="middle">Charity</text>
</svg>
