<svg xmlns="http://www.w3.org/2000/svg" viewBox="0 0 400 300">
  <defs>
    <linearGradient id="corpBg" x1="0%" y1="0%" x2="100%" y2="100%">
      <stop offset="0%" style="stop-color:#F1F5F9;stop-opacity:1" />
      <stop offset="100%" style="stop-color:#E2E8F0;stop-opacity:1" />
    </linearGradient>
  </defs>
  <rect width="400" height="300" fill="url(#corpBg)"/>

  <!-- Building -->
  <rect x="140" y="80" width="120" height="140" fill="#475569" rx="5"/>

  <!-- Windows -->
  <rect x="155" y="95" width="20" height="20" fill="#94A3B8"/>
  <rect x="190" y="95" width="20" height="20" fill="#94A3B8"/>
  <rect x="225" y="95" width="20" height="20" fill="#94A3B8"/>

  <rect x="155" y="125" width="20" height="20" fill="#94A3B8"/>
  <rect x="190" y="125" width="20" height="20" fill="#CBD5E1"/>
  <rect x="225" y="125" width="20" height="20" fill="#94A3B8"/>

  <rect x="155" y="155" width="20" height="20" fill="#94A3B8"/>
  <rect x="190" y="155" width="20" height="20" fill="#94A3B8"/>
  <rect x="225" y="155" width="20" height="20" fill="#CBD5E1"/>

  <rect x="155" y="185" width="20" height="20" fill="#CBD5E1"/>
  <rect x="190" y="185" width="20" height="20" fill="#94A3B8"/>
  <rect x="225" y="185" width="20" height="20" fill="#94A3B8"/>

  <!-- Door -->
  <rect x="185" y="195" width="30" height="25" fill="#1E293B"/>

  <text x="200" y="260" font-family="Arial, sans-serif" font-size="24" font-weight="bold" fill="#334155" text-anchor="middle">Corporate</text>
</svg>
