<svg xmlns="http://www.w3.org/2000/svg" viewBox="0 0 400 300">
  <defs>
    <linearGradient id="workshopBg" x1="0%" y1="0%" x2="100%" y2="100%">
      <stop offset="0%" style="stop-color:#FEF3C7;stop-opacity:1" />
      <stop offset="100%" style="stop-color:#FDE68A;stop-opacity:1" />
    </linearGradient>
  </defs>
  <rect width="400" height="300" fill="url(#workshopBg)"/>

  <!-- Laptop -->
  <rect x="140" y="130" width="120" height="80" fill="#B45309" rx="3"/>
  <rect x="145" y="135" width="110" height="60" fill="#FCD34D"/>

  <!-- Code lines on screen -->
  <rect x="155" y="145" width="50" height="4" fill="#B45309" opacity="0.4"/>
  <rect x="155" y="155" width="70" height="4" fill="#B45309" opacity="0.4"/>
  <rect x="155" y="165" width="40" height="4" fill="#B45309" opacity="0.4"/>
  <rect x="155" y="175" width="60" height="4" fill="#B45309" opacity="0.4"/>

  <!-- Laptop base -->
  <path d="M120,210 L280,210 L270,220 L130,220 Z" fill="#92400E"/>

  <!-- Coffee cup -->
  <rect x="290" y="180" width="30" height="35" fill="#D97706" rx="2"/>
  <ellipse cx="305" cy="180" rx="15" ry="5" fill="#B45309"/>
  <path d="M320,190 Q330,190 330,200 Q330,210 320,210" fill="none" stroke="#B45309" stroke-width="3"/>

  <text x="200" y="260" font-family="Arial, sans-serif" font-size="24" font-weight="bold" fill="#92400E" text-anchor="middle">Workshop</text>
</svg>
